<svg width="69" height="41" viewBox="0 0 69 41" fill="none" xmlns="http://www.w3.org/2000/svg">
<rect x="69" y="1" width="39" height="69" transform="rotate(90 69 1)" fill="#2A74CD"/>
<line x1="62.2158" y1="1" x2="62.2158" y2="40" stroke="white" stroke-width="5"/>
<line x1="11.7842" y1="1" x2="11.7842" y2="40" stroke="white" stroke-width="5"/>
<rect x="61.6147" y="20.0807" width="0.838711" height="54.2294" transform="rotate(90 61.6147 20.0807)" fill="white"/>
<line x1="37.5825" y1="1" x2="37.5825" y2="40" stroke="white" stroke-width="3"/>
<line y1="-0.5" x2="3.15517" y2="-0.5" transform="matrix(0.709342 0.704865 -0.709342 0.704865 33.8447 1)" stroke="white"/>
<line y1="-0.5" x2="3.15517" y2="-0.5" transform="matrix(-0.709342 0.704865 -0.709342 -0.704865 36.0825 1)" stroke="white"/>
<line y1="-0.5" x2="1.68276" y2="-0.5" transform="matrix(-0.709342 0.704864 -0.709342 -0.704864 35.0273 1)" stroke="white"/>
<line y1="-0.5" x2="1.68276" y2="-0.5" transform="matrix(0.709342 0.704864 -0.709342 0.704864 34.8892 1)" stroke="white"/>
<line y1="-0.5" x2="3.15517" y2="-0.5" transform="matrix(0.709342 0.704865 -0.709342 0.704865 33.8447 2.04834)" stroke="white"/>
<line y1="-0.5" x2="3.15517" y2="-0.5" transform="matrix(-0.709342 0.704865 -0.709342 -0.704865 36.0825 2.04834)" stroke="white"/>
<line y1="-0.5" x2="3.15517" y2="-0.5" transform="matrix(0.709342 0.704865 -0.709342 0.704865 33.8447 3.3064)" stroke="white"/>
<line y1="-0.5" x2="3.15517" y2="-0.5" transform="matrix(-0.709342 0.704865 -0.709342 -0.704865 36.0825 3.3064)" stroke="white"/>
<line y1="-0.5" x2="3.15517" y2="-0.5" transform="matrix(0.709342 0.704865 -0.709342 0.704865 33.8447 4.35486)" stroke="white"/>
<line y1="-0.5" x2="3.15517" y2="-0.5" transform="matrix(-0.709342 0.704865 -0.709342 -0.704865 36.0825 4.35486)" stroke="white"/>
<line y1="-0.5" x2="3.15517" y2="-0.5" transform="matrix(0.709342 0.704865 -0.709342 0.704865 33.8447 5.61292)" stroke="white"/>
<line y1="-0.5" x2="3.15517" y2="-0.5" transform="matrix(-0.709342 0.704865 -0.709342 -0.704865 36.0825 5.61292)" stroke="white"/>
<line y1="-0.5" x2="3.15517" y2="-0.5" transform="matrix(0.709342 0.704865 -0.709342 0.704865 33.8447 6.66125)" stroke="white"/>
<line y1="-0.5" x2="3.15517" y2="-0.5" transform="matrix(-0.709342 0.704865 -0.709342 -0.704865 36.0825 6.66125)" stroke="white"/>
<line y1="-0.5" x2="3.15517" y2="-0.5" transform="matrix(0.709342 0.704865 -0.709342 0.704865 33.8447 7.91931)" stroke="white"/>
<line y1="-0.5" x2="3.15517" y2="-0.5" transform="matrix(-0.709342 0.704865 -0.709342 -0.704865 36.0825 7.91931)" stroke="white"/>
<line y1="-0.5" x2="3.15517" y2="-0.5" transform="matrix(0.709342 0.704865 -0.709342 0.704865 33.8447 8.96777)" stroke="white"/>
<line y1="-0.5" x2="3.15517" y2="-0.5" transform="matrix(-0.709342 0.704865 -0.709342 -0.704865 36.0825 8.96777)" stroke="white"/>
<line y1="-0.5" x2="3.15517" y2="-0.5" transform="matrix(0.709342 0.704865 -0.709342 0.704865 33.8447 10.2258)" stroke="white"/>
<line y1="-0.5" x2="3.15517" y2="-0.5" transform="matrix(-0.709342 0.704865 -0.709342 -0.704865 36.0825 10.2258)" stroke="white"/>
<line y1="-0.5" x2="3.15517" y2="-0.5" transform="matrix(0.709342 0.704865 -0.709342 0.704865 33.8447 11.2742)" stroke="white"/>
<line y1="-0.5" x2="3.15517" y2="-0.5" transform="matrix(-0.709342 0.704865 -0.709342 -0.704865 36.0825 11.2742)" stroke="white"/>
<line y1="-0.5" x2="3.15517" y2="-0.5" transform="matrix(0.709342 0.704865 -0.709342 0.704865 33.8447 12.5322)" stroke="white"/>
<line y1="-0.5" x2="3.15517" y2="-0.5" transform="matrix(-0.709342 0.704865 -0.709342 -0.704865 36.0825 12.5322)" stroke="white"/>
<line y1="-0.5" x2="3.15517" y2="-0.5" transform="matrix(0.709342 0.704865 -0.709342 0.704865 33.8447 13.5807)" stroke="white"/>
<line y1="-0.5" x2="3.15517" y2="-0.5" transform="matrix(-0.709342 0.704865 -0.709342 -0.704865 36.0825 13.5807)" stroke="white"/>
<line y1="-0.5" x2="3.15516" y2="-0.5" transform="matrix(0.709342 0.704865 -0.709342 0.704865 33.8447 14.8387)" stroke="white"/>
<line y1="-0.5" x2="3.15516" y2="-0.5" transform="matrix(-0.709342 0.704865 -0.709342 -0.704865 36.0825 14.8387)" stroke="white"/>
<line y1="-0.5" x2="3.15517" y2="-0.5" transform="matrix(0.709342 0.704865 -0.709342 0.704865 33.8447 15.8871)" stroke="white"/>
<line y1="-0.5" x2="3.15517" y2="-0.5" transform="matrix(-0.709342 0.704865 -0.709342 -0.704865 36.0825 15.8871)" stroke="white"/>
<line y1="-0.5" x2="3.15517" y2="-0.5" transform="matrix(0.709342 0.704865 -0.709342 0.704865 33.8447 17.1451)" stroke="white"/>
<line y1="-0.5" x2="3.15517" y2="-0.5" transform="matrix(-0.709342 0.704865 -0.709342 -0.704865 36.0825 17.1451)" stroke="white"/>
<line y1="-0.5" x2="3.15517" y2="-0.5" transform="matrix(0.709342 0.704865 -0.709342 0.704865 33.8447 18.1936)" stroke="white"/>
<line y1="-0.5" x2="3.15517" y2="-0.5" transform="matrix(-0.709342 0.704865 -0.709342 -0.704865 36.0825 18.1936)" stroke="white"/>
<line y1="-0.5" x2="3.15517" y2="-0.5" transform="matrix(0.709342 0.704865 -0.709342 0.704865 33.8447 19.4517)" stroke="white"/>
<line y1="-0.5" x2="3.15517" y2="-0.5" transform="matrix(-0.709342 0.704865 -0.709342 -0.704865 36.0825 19.4517)" stroke="white"/>
<line y1="-0.5" x2="3.15517" y2="-0.5" transform="matrix(0.709342 0.704865 -0.709342 0.704865 33.8447 20.5)" stroke="white"/>
<line y1="-0.5" x2="3.15517" y2="-0.5" transform="matrix(-0.709342 0.704865 -0.709342 -0.704865 36.0825 20.5)" stroke="white"/>
<line y1="-0.5" x2="3.15517" y2="-0.5" transform="matrix(0.709342 0.704865 -0.709342 0.704865 33.8447 21.7581)" stroke="white"/>
<line y1="-0.5" x2="3.15517" y2="-0.5" transform="matrix(-0.709342 0.704865 -0.709342 -0.704865 36.0825 21.7581)" stroke="white"/>
<line y1="-0.5" x2="3.15517" y2="-0.5" transform="matrix(0.709342 0.704865 -0.709342 0.704865 33.8447 22.8064)" stroke="white"/>
<line y1="-0.5" x2="3.15517" y2="-0.5" transform="matrix(-0.709342 0.704865 -0.709342 -0.704865 36.0825 22.8064)" stroke="white"/>
<line y1="-0.5" x2="3.15517" y2="-0.5" transform="matrix(0.709342 0.704865 -0.709342 0.704865 33.8447 24.0646)" stroke="white"/>
<line y1="-0.5" x2="3.15517" y2="-0.5" transform="matrix(-0.709342 0.704865 -0.709342 -0.704865 36.0825 24.0646)" stroke="white"/>
<line y1="-0.5" x2="3.15517" y2="-0.5" transform="matrix(0.709342 0.704865 -0.709342 0.704865 33.8447 25.1129)" stroke="white"/>
<line y1="-0.5" x2="3.15517" y2="-0.5" transform="matrix(-0.709342 0.704865 -0.709342 -0.704865 36.0825 25.1129)" stroke="white"/>
<line y1="-0.5" x2="3.15517" y2="-0.5" transform="matrix(0.709342 0.704865 -0.709342 0.704865 33.8447 26.371)" stroke="white"/>
<line y1="-0.5" x2="3.15517" y2="-0.5" transform="matrix(-0.709342 0.704865 -0.709342 -0.704865 36.0825 26.371)" stroke="white"/>
<line y1="-0.5" x2="3.15517" y2="-0.5" transform="matrix(0.709342 0.704865 -0.709342 0.704865 33.8447 27.4193)" stroke="white"/>
<line y1="-0.5" x2="3.15517" y2="-0.5" transform="matrix(-0.709342 0.704865 -0.709342 -0.704865 36.0825 27.4193)" stroke="white"/>
<line y1="-0.5" x2="3.15517" y2="-0.5" transform="matrix(0.709342 0.704865 -0.709342 0.704865 33.8447 28.6774)" stroke="white"/>
<line y1="-0.5" x2="3.15517" y2="-0.5" transform="matrix(-0.709342 0.704865 -0.709342 -0.704865 36.0825 28.6774)" stroke="white"/>
<line y1="-0.5" x2="3.15517" y2="-0.5" transform="matrix(0.709342 0.704865 -0.709342 0.704865 33.8447 29.7258)" stroke="white"/>
<line y1="-0.5" x2="3.15517" y2="-0.5" transform="matrix(-0.709342 0.704865 -0.709342 -0.704865 36.0825 29.7258)" stroke="white"/>
<line y1="-0.5" x2="3.15517" y2="-0.5" transform="matrix(0.709342 0.704865 -0.709342 0.704865 33.8447 30.9839)" stroke="white"/>
<line y1="-0.5" x2="3.15517" y2="-0.5" transform="matrix(-0.709342 0.704865 -0.709342 -0.704865 36.0825 30.9839)" stroke="white"/>
<line y1="-0.5" x2="3.15516" y2="-0.5" transform="matrix(0.709342 0.704864 -0.709342 0.704864 33.8447 32.0322)" stroke="white"/>
<line y1="-0.5" x2="3.15516" y2="-0.5" transform="matrix(-0.709342 0.704864 -0.709342 -0.704864 36.0825 32.0322)" stroke="white"/>
<line y1="-0.5" x2="3.15517" y2="-0.5" transform="matrix(0.709342 0.704865 -0.709342 0.704865 33.8447 33.2903)" stroke="white"/>
<line y1="-0.5" x2="3.15517" y2="-0.5" transform="matrix(-0.709342 0.704865 -0.709342 -0.704865 36.0825 33.2903)" stroke="white"/>
<line y1="-0.5" x2="3.15517" y2="-0.5" transform="matrix(0.709342 0.704865 -0.709342 0.704865 33.8447 34.3387)" stroke="white"/>
<line y1="-0.5" x2="3.15517" y2="-0.5" transform="matrix(-0.709342 0.704865 -0.709342 -0.704865 36.0825 34.3387)" stroke="white"/>
<line y1="-0.5" x2="3.15517" y2="-0.5" transform="matrix(0.709342 0.704865 -0.709342 0.704865 33.8447 35.5968)" stroke="white"/>
<line y1="-0.5" x2="3.15517" y2="-0.5" transform="matrix(-0.709342 0.704865 -0.709342 -0.704865 36.0825 35.5968)" stroke="white"/>
<line y1="-0.5" x2="3.15517" y2="-0.5" transform="matrix(0.709342 0.704865 -0.709342 0.704865 33.8447 36.6451)" stroke="white"/>
<line y1="-0.5" x2="3.15517" y2="-0.5" transform="matrix(-0.709342 0.704865 -0.709342 -0.704865 36.0825 36.6451)" stroke="white"/>
<line y1="-0.5" x2="2.94482" y2="-0.5" transform="matrix(0.709341 0.704865 -0.709341 0.704865 33.8447 37.9032)" stroke="white"/>
<line y1="-0.5" x2="1.26207" y2="-0.5" transform="matrix(0.709343 0.704863 -0.709343 0.704863 33.8447 38.9517)" stroke="white"/>
<line y1="-0.5" x2="2.73448" y2="-0.5" transform="matrix(-0.709342 0.704865 -0.709342 -0.704865 36.0825 37.9032)" stroke="white"/>
<line y1="-0.5" x2="1.26207" y2="-0.5" transform="matrix(-0.709343 0.704863 -0.709343 -0.704863 36.0825 38.9517)" stroke="white"/>
<line x1="34.2065" y1="1" x2="34.2065" y2="40" stroke="white" stroke-width="3"/>
<line x1="62.2158" y1="1" x2="62.2158" y2="40" stroke="white" stroke-width="5"/>
<line x1="11.7842" y1="1" x2="11.7842" y2="40" stroke="white" stroke-width="5"/>
<rect x="61.6147" y="20.0807" width="0.838711" height="54.2294" transform="rotate(90 61.6147 20.0807)" fill="white"/>
<line x1="37.5825" y1="1" x2="37.5825" y2="40" stroke="white" stroke-width="3"/>
<line y1="-0.5" x2="3.15517" y2="-0.5" transform="matrix(0.709342 0.704865 -0.709342 0.704865 33.8447 1)" stroke="white"/>
<line y1="-0.5" x2="3.15517" y2="-0.5" transform="matrix(-0.709342 0.704865 -0.709342 -0.704865 36.0825 1)" stroke="white"/>
<line y1="-0.5" x2="1.68276" y2="-0.5" transform="matrix(-0.709342 0.704864 -0.709342 -0.704864 35.0273 1)" stroke="white"/>
<line y1="-0.5" x2="1.68276" y2="-0.5" transform="matrix(0.709342 0.704864 -0.709342 0.704864 34.8892 1)" stroke="white"/>
<line y1="-0.5" x2="3.15517" y2="-0.5" transform="matrix(0.709342 0.704865 -0.709342 0.704865 33.8447 2.04834)" stroke="white"/>
<line y1="-0.5" x2="3.15517" y2="-0.5" transform="matrix(-0.709342 0.704865 -0.709342 -0.704865 36.0825 2.04834)" stroke="white"/>
<line y1="-0.5" x2="3.15517" y2="-0.5" transform="matrix(0.709342 0.704865 -0.709342 0.704865 33.8447 3.3064)" stroke="white"/>
<line y1="-0.5" x2="3.15517" y2="-0.5" transform="matrix(-0.709342 0.704865 -0.709342 -0.704865 36.0825 3.3064)" stroke="white"/>
<line y1="-0.5" x2="3.15517" y2="-0.5" transform="matrix(0.709342 0.704865 -0.709342 0.704865 33.8447 4.35486)" stroke="white"/>
<line y1="-0.5" x2="3.15517" y2="-0.5" transform="matrix(-0.709342 0.704865 -0.709342 -0.704865 36.0825 4.35486)" stroke="white"/>
<line y1="-0.5" x2="3.15517" y2="-0.5" transform="matrix(0.709342 0.704865 -0.709342 0.704865 33.8447 5.61292)" stroke="white"/>
<line y1="-0.5" x2="3.15517" y2="-0.5" transform="matrix(-0.709342 0.704865 -0.709342 -0.704865 36.0825 5.61292)" stroke="white"/>
<line y1="-0.5" x2="3.15517" y2="-0.5" transform="matrix(0.709342 0.704865 -0.709342 0.704865 33.8447 6.66125)" stroke="white"/>
<line y1="-0.5" x2="3.15517" y2="-0.5" transform="matrix(-0.709342 0.704865 -0.709342 -0.704865 36.0825 6.66125)" stroke="white"/>
<line y1="-0.5" x2="3.15517" y2="-0.5" transform="matrix(0.709342 0.704865 -0.709342 0.704865 33.8447 7.91931)" stroke="white"/>
<line y1="-0.5" x2="3.15517" y2="-0.5" transform="matrix(-0.709342 0.704865 -0.709342 -0.704865 36.0825 7.91931)" stroke="white"/>
<line y1="-0.5" x2="3.15517" y2="-0.5" transform="matrix(0.709342 0.704865 -0.709342 0.704865 33.8447 8.96777)" stroke="white"/>
<line y1="-0.5" x2="3.15517" y2="-0.5" transform="matrix(-0.709342 0.704865 -0.709342 -0.704865 36.0825 8.96777)" stroke="white"/>
<line y1="-0.5" x2="3.15517" y2="-0.5" transform="matrix(0.709342 0.704865 -0.709342 0.704865 33.8447 10.2258)" stroke="white"/>
<line y1="-0.5" x2="3.15517" y2="-0.5" transform="matrix(-0.709342 0.704865 -0.709342 -0.704865 36.0825 10.2258)" stroke="white"/>
<line y1="-0.5" x2="3.15517" y2="-0.5" transform="matrix(0.709342 0.704865 -0.709342 0.704865 33.8447 11.2742)" stroke="white"/>
<line y1="-0.5" x2="3.15517" y2="-0.5" transform="matrix(-0.709342 0.704865 -0.709342 -0.704865 36.0825 11.2742)" stroke="white"/>
<line y1="-0.5" x2="3.15517" y2="-0.5" transform="matrix(0.709342 0.704865 -0.709342 0.704865 33.8447 12.5322)" stroke="white"/>
<line y1="-0.5" x2="3.15517" y2="-0.5" transform="matrix(-0.709342 0.704865 -0.709342 -0.704865 36.0825 12.5322)" stroke="white"/>
<line y1="-0.5" x2="3.15517" y2="-0.5" transform="matrix(0.709342 0.704865 -0.709342 0.704865 33.8447 13.5807)" stroke="white"/>
<line y1="-0.5" x2="3.15517" y2="-0.5" transform="matrix(-0.709342 0.704865 -0.709342 -0.704865 36.0825 13.5807)" stroke="white"/>
<line y1="-0.5" x2="3.15516" y2="-0.5" transform="matrix(0.709342 0.704865 -0.709342 0.704865 33.8447 14.8387)" stroke="white"/>
<line y1="-0.5" x2="3.15516" y2="-0.5" transform="matrix(-0.709342 0.704865 -0.709342 -0.704865 36.0825 14.8387)" stroke="white"/>
<line y1="-0.5" x2="3.15517" y2="-0.5" transform="matrix(0.709342 0.704865 -0.709342 0.704865 33.8447 15.8871)" stroke="white"/>
<line y1="-0.5" x2="3.15517" y2="-0.5" transform="matrix(-0.709342 0.704865 -0.709342 -0.704865 36.0825 15.8871)" stroke="white"/>
<line y1="-0.5" x2="3.15517" y2="-0.5" transform="matrix(0.709342 0.704865 -0.709342 0.704865 33.8447 17.1451)" stroke="white"/>
<line y1="-0.5" x2="3.15517" y2="-0.5" transform="matrix(-0.709342 0.704865 -0.709342 -0.704865 36.0825 17.1451)" stroke="white"/>
<line y1="-0.5" x2="3.15517" y2="-0.5" transform="matrix(0.709342 0.704865 -0.709342 0.704865 33.8447 18.1936)" stroke="white"/>
<line y1="-0.5" x2="3.15517" y2="-0.5" transform="matrix(-0.709342 0.704865 -0.709342 -0.704865 36.0825 18.1936)" stroke="white"/>
<line y1="-0.5" x2="3.15517" y2="-0.5" transform="matrix(0.709342 0.704865 -0.709342 0.704865 33.8447 19.4517)" stroke="white"/>
<line y1="-0.5" x2="3.15517" y2="-0.5" transform="matrix(-0.709342 0.704865 -0.709342 -0.704865 36.0825 19.4517)" stroke="white"/>
<line y1="-0.5" x2="3.15517" y2="-0.5" transform="matrix(0.709342 0.704865 -0.709342 0.704865 33.8447 20.5)" stroke="white"/>
<line y1="-0.5" x2="3.15517" y2="-0.5" transform="matrix(-0.709342 0.704865 -0.709342 -0.704865 36.0825 20.5)" stroke="white"/>
<line y1="-0.5" x2="3.15517" y2="-0.5" transform="matrix(0.709342 0.704865 -0.709342 0.704865 33.8447 21.7581)" stroke="white"/>
<line y1="-0.5" x2="3.15517" y2="-0.5" transform="matrix(-0.709342 0.704865 -0.709342 -0.704865 36.0825 21.7581)" stroke="white"/>
<line y1="-0.5" x2="3.15517" y2="-0.5" transform="matrix(0.709342 0.704865 -0.709342 0.704865 33.8447 22.8064)" stroke="white"/>
<line y1="-0.5" x2="3.15517" y2="-0.5" transform="matrix(-0.709342 0.704865 -0.709342 -0.704865 36.0825 22.8064)" stroke="white"/>
<line y1="-0.5" x2="3.15517" y2="-0.5" transform="matrix(0.709342 0.704865 -0.709342 0.704865 33.8447 24.0646)" stroke="white"/>
<line y1="-0.5" x2="3.15517" y2="-0.5" transform="matrix(-0.709342 0.704865 -0.709342 -0.704865 36.0825 24.0646)" stroke="white"/>
<line y1="-0.5" x2="3.15517" y2="-0.5" transform="matrix(0.709342 0.704865 -0.709342 0.704865 33.8447 25.1129)" stroke="white"/>
<line y1="-0.5" x2="3.15517" y2="-0.5" transform="matrix(-0.709342 0.704865 -0.709342 -0.704865 36.0825 25.1129)" stroke="white"/>
<line y1="-0.5" x2="3.15517" y2="-0.5" transform="matrix(0.709342 0.704865 -0.709342 0.704865 33.8447 26.371)" stroke="white"/>
<line y1="-0.5" x2="3.15517" y2="-0.5" transform="matrix(-0.709342 0.704865 -0.709342 -0.704865 36.0825 26.371)" stroke="white"/>
<line y1="-0.5" x2="3.15517" y2="-0.5" transform="matrix(0.709342 0.704865 -0.709342 0.704865 33.8447 27.4193)" stroke="white"/>
<line y1="-0.5" x2="3.15517" y2="-0.5" transform="matrix(-0.709342 0.704865 -0.709342 -0.704865 36.0825 27.4193)" stroke="white"/>
<line y1="-0.5" x2="3.15517" y2="-0.5" transform="matrix(0.709342 0.704865 -0.709342 0.704865 33.8447 28.6774)" stroke="white"/>
<line y1="-0.5" x2="3.15517" y2="-0.5" transform="matrix(-0.709342 0.704865 -0.709342 -0.704865 36.0825 28.6774)" stroke="white"/>
<line y1="-0.5" x2="3.15517" y2="-0.5" transform="matrix(0.709342 0.704865 -0.709342 0.704865 33.8447 29.7258)" stroke="white"/>
<line y1="-0.5" x2="3.15517" y2="-0.5" transform="matrix(-0.709342 0.704865 -0.709342 -0.704865 36.0825 29.7258)" stroke="white"/>
<line y1="-0.5" x2="3.15517" y2="-0.5" transform="matrix(0.709342 0.704865 -0.709342 0.704865 33.8447 30.9839)" stroke="white"/>
<line y1="-0.5" x2="3.15517" y2="-0.5" transform="matrix(-0.709342 0.704865 -0.709342 -0.704865 36.0825 30.9839)" stroke="white"/>
<line y1="-0.5" x2="3.15516" y2="-0.5" transform="matrix(0.709342 0.704864 -0.709342 0.704864 33.8447 32.0322)" stroke="white"/>
<line y1="-0.5" x2="3.15516" y2="-0.5" transform="matrix(-0.709342 0.704864 -0.709342 -0.704864 36.0825 32.0322)" stroke="white"/>
<line y1="-0.5" x2="3.15517" y2="-0.5" transform="matrix(0.709342 0.704865 -0.709342 0.704865 33.8447 33.2903)" stroke="white"/>
<line y1="-0.5" x2="3.15517" y2="-0.5" transform="matrix(-0.709342 0.704865 -0.709342 -0.704865 36.0825 33.2903)" stroke="white"/>
<line y1="-0.5" x2="3.15517" y2="-0.5" transform="matrix(0.709342 0.704865 -0.709342 0.704865 33.8447 34.3387)" stroke="white"/>
<line y1="-0.5" x2="3.15517" y2="-0.5" transform="matrix(-0.709342 0.704865 -0.709342 -0.704865 36.0825 34.3387)" stroke="white"/>
<line y1="-0.5" x2="3.15517" y2="-0.5" transform="matrix(0.709342 0.704865 -0.709342 0.704865 33.8447 35.5968)" stroke="white"/>
<line y1="-0.5" x2="3.15517" y2="-0.5" transform="matrix(-0.709342 0.704865 -0.709342 -0.704865 36.0825 35.5968)" stroke="white"/>
<line y1="-0.5" x2="3.15517" y2="-0.5" transform="matrix(0.709342 0.704865 -0.709342 0.704865 33.8447 36.6451)" stroke="white"/>
<line y1="-0.5" x2="3.15517" y2="-0.5" transform="matrix(-0.709342 0.704865 -0.709342 -0.704865 36.0825 36.6451)" stroke="white"/>
<line y1="-0.5" x2="2.94482" y2="-0.5" transform="matrix(0.709341 0.704865 -0.709341 0.704865 33.8447 37.9032)" stroke="white"/>
<line y1="-0.5" x2="1.26207" y2="-0.5" transform="matrix(0.709343 0.704863 -0.709343 0.704863 33.8447 38.9517)" stroke="white"/>
<line y1="-0.5" x2="2.73448" y2="-0.5" transform="matrix(-0.709342 0.704865 -0.709342 -0.704865 36.0825 37.9032)" stroke="white"/>
<line y1="-0.5" x2="1.26207" y2="-0.5" transform="matrix(-0.709343 0.704863 -0.709343 -0.704863 36.0825 38.9517)" stroke="white"/>
<line x1="34.2065" y1="1" x2="34.2065" y2="40" stroke="white" stroke-width="3"/>
</svg>
