<svg width="69" height="41" viewBox="0 0 69 41" fill="none" xmlns="http://www.w3.org/2000/svg">
<rect x="69" y="1" width="39" height="69" transform="rotate(90 69 1)" fill="#F4BA67"/>
<line x1="38.6377" y1="1" x2="38.6377" y2="40" stroke="white" stroke-width="3"/>
<line y1="-0.5" x2="3.15517" y2="-0.5" transform="matrix(0.709342 0.704865 -0.709342 0.704865 34.8994 1)" stroke="white"/>
<line y1="-0.5" x2="3.15517" y2="-0.5" transform="matrix(-0.709342 0.704865 -0.709342 -0.704865 37.1377 1)" stroke="white"/>
<line y1="-0.5" x2="1.68275" y2="-0.5" transform="matrix(-0.709342 0.704865 -0.709342 -0.704865 36.0825 1)" stroke="white"/>
<line y1="-0.5" x2="1.68275" y2="-0.5" transform="matrix(0.709342 0.704865 -0.709342 0.704865 35.9438 1)" stroke="white"/>
<line y1="-0.5" x2="3.15517" y2="-0.5" transform="matrix(0.709342 0.704865 -0.709342 0.704865 34.8994 2.04834)" stroke="white"/>
<line y1="-0.5" x2="3.15517" y2="-0.5" transform="matrix(-0.709342 0.704865 -0.709342 -0.704865 37.1377 2.04834)" stroke="white"/>
<line y1="-0.5" x2="3.15517" y2="-0.5" transform="matrix(0.709342 0.704865 -0.709342 0.704865 34.8994 3.3064)" stroke="white"/>
<line y1="-0.5" x2="3.15517" y2="-0.5" transform="matrix(-0.709342 0.704865 -0.709342 -0.704865 37.1377 3.3064)" stroke="white"/>
<line y1="-0.5" x2="3.15517" y2="-0.5" transform="matrix(0.709342 0.704865 -0.709342 0.704865 34.8994 4.35486)" stroke="white"/>
<line y1="-0.5" x2="3.15517" y2="-0.5" transform="matrix(-0.709342 0.704865 -0.709342 -0.704865 37.1377 4.35486)" stroke="white"/>
<line y1="-0.5" x2="3.15517" y2="-0.5" transform="matrix(0.709342 0.704865 -0.709342 0.704865 34.8994 5.61292)" stroke="white"/>
<line y1="-0.5" x2="3.15517" y2="-0.5" transform="matrix(-0.709342 0.704865 -0.709342 -0.704865 37.1377 5.61292)" stroke="white"/>
<line y1="-0.5" x2="3.15517" y2="-0.5" transform="matrix(0.709342 0.704865 -0.709342 0.704865 34.8994 6.66125)" stroke="white"/>
<line y1="-0.5" x2="3.15517" y2="-0.5" transform="matrix(-0.709342 0.704865 -0.709342 -0.704865 37.1377 6.66125)" stroke="white"/>
<line y1="-0.5" x2="3.15517" y2="-0.5" transform="matrix(0.709342 0.704865 -0.709342 0.704865 34.8994 7.91931)" stroke="white"/>
<line y1="-0.5" x2="3.15517" y2="-0.5" transform="matrix(-0.709342 0.704865 -0.709342 -0.704865 37.1377 7.91931)" stroke="white"/>
<line y1="-0.5" x2="3.15517" y2="-0.5" transform="matrix(0.709342 0.704865 -0.709342 0.704865 34.8994 8.96777)" stroke="white"/>
<line y1="-0.5" x2="3.15517" y2="-0.5" transform="matrix(-0.709342 0.704865 -0.709342 -0.704865 37.1377 8.96777)" stroke="white"/>
<line y1="-0.5" x2="3.15517" y2="-0.5" transform="matrix(0.709342 0.704865 -0.709342 0.704865 34.8994 10.2258)" stroke="white"/>
<line y1="-0.5" x2="3.15517" y2="-0.5" transform="matrix(-0.709342 0.704865 -0.709342 -0.704865 37.1377 10.2258)" stroke="white"/>
<line y1="-0.5" x2="3.15517" y2="-0.5" transform="matrix(0.709342 0.704865 -0.709342 0.704865 34.8994 11.2742)" stroke="white"/>
<line y1="-0.5" x2="3.15517" y2="-0.5" transform="matrix(-0.709342 0.704865 -0.709342 -0.704865 37.1377 11.2742)" stroke="white"/>
<line y1="-0.5" x2="3.15517" y2="-0.5" transform="matrix(0.709342 0.704865 -0.709342 0.704865 34.8994 12.5322)" stroke="white"/>
<line y1="-0.5" x2="3.15517" y2="-0.5" transform="matrix(-0.709342 0.704865 -0.709342 -0.704865 37.1377 12.5322)" stroke="white"/>
<line y1="-0.5" x2="3.15517" y2="-0.5" transform="matrix(0.709342 0.704865 -0.709342 0.704865 34.8994 13.5807)" stroke="white"/>
<line y1="-0.5" x2="3.15517" y2="-0.5" transform="matrix(-0.709342 0.704865 -0.709342 -0.704865 37.1377 13.5807)" stroke="white"/>
<line y1="-0.5" x2="3.15516" y2="-0.5" transform="matrix(0.709342 0.704865 -0.709342 0.704865 34.8994 14.8387)" stroke="white"/>
<line y1="-0.5" x2="3.15516" y2="-0.5" transform="matrix(-0.709342 0.704865 -0.709342 -0.704865 37.1377 14.8387)" stroke="white"/>
<line y1="-0.5" x2="3.15517" y2="-0.5" transform="matrix(0.709342 0.704865 -0.709342 0.704865 34.8994 15.8871)" stroke="white"/>
<line y1="-0.5" x2="3.15517" y2="-0.5" transform="matrix(-0.709342 0.704865 -0.709342 -0.704865 37.1377 15.8871)" stroke="white"/>
<line y1="-0.5" x2="3.15517" y2="-0.5" transform="matrix(0.709342 0.704865 -0.709342 0.704865 34.8994 17.1451)" stroke="white"/>
<line y1="-0.5" x2="3.15517" y2="-0.5" transform="matrix(-0.709342 0.704865 -0.709342 -0.704865 37.1377 17.1451)" stroke="white"/>
<line y1="-0.5" x2="3.15517" y2="-0.5" transform="matrix(0.709342 0.704865 -0.709342 0.704865 34.8994 18.1936)" stroke="white"/>
<line y1="-0.5" x2="3.15517" y2="-0.5" transform="matrix(-0.709342 0.704865 -0.709342 -0.704865 37.1377 18.1936)" stroke="white"/>
<line y1="-0.5" x2="3.15517" y2="-0.5" transform="matrix(0.709342 0.704865 -0.709342 0.704865 34.8994 19.4517)" stroke="white"/>
<line y1="-0.5" x2="3.15517" y2="-0.5" transform="matrix(-0.709342 0.704865 -0.709342 -0.704865 37.1377 19.4517)" stroke="white"/>
<line y1="-0.5" x2="3.15517" y2="-0.5" transform="matrix(0.709342 0.704865 -0.709342 0.704865 34.8994 20.5)" stroke="white"/>
<line y1="-0.5" x2="3.15517" y2="-0.5" transform="matrix(-0.709342 0.704865 -0.709342 -0.704865 37.1377 20.5)" stroke="white"/>
<line y1="-0.5" x2="3.15517" y2="-0.5" transform="matrix(0.709342 0.704865 -0.709342 0.704865 34.8994 21.7581)" stroke="white"/>
<line y1="-0.5" x2="3.15517" y2="-0.5" transform="matrix(-0.709342 0.704865 -0.709342 -0.704865 37.1377 21.7581)" stroke="white"/>
<line y1="-0.5" x2="3.15517" y2="-0.5" transform="matrix(0.709342 0.704865 -0.709342 0.704865 34.8994 22.8064)" stroke="white"/>
<line y1="-0.5" x2="3.15517" y2="-0.5" transform="matrix(-0.709342 0.704865 -0.709342 -0.704865 37.1377 22.8064)" stroke="white"/>
<line y1="-0.5" x2="3.15517" y2="-0.5" transform="matrix(0.709342 0.704865 -0.709342 0.704865 34.8994 24.0646)" stroke="white"/>
<line y1="-0.5" x2="3.15517" y2="-0.5" transform="matrix(-0.709342 0.704865 -0.709342 -0.704865 37.1377 24.0646)" stroke="white"/>
<line y1="-0.5" x2="3.15517" y2="-0.5" transform="matrix(0.709342 0.704865 -0.709342 0.704865 34.8994 25.1129)" stroke="white"/>
<line y1="-0.5" x2="3.15517" y2="-0.5" transform="matrix(-0.709342 0.704865 -0.709342 -0.704865 37.1377 25.1129)" stroke="white"/>
<line y1="-0.5" x2="3.15517" y2="-0.5" transform="matrix(0.709342 0.704865 -0.709342 0.704865 34.8994 26.371)" stroke="white"/>
<line y1="-0.5" x2="3.15517" y2="-0.5" transform="matrix(-0.709342 0.704865 -0.709342 -0.704865 37.1377 26.371)" stroke="white"/>
<line y1="-0.5" x2="3.15517" y2="-0.5" transform="matrix(0.709342 0.704865 -0.709342 0.704865 34.8994 27.4193)" stroke="white"/>
<line y1="-0.5" x2="3.15517" y2="-0.5" transform="matrix(-0.709342 0.704865 -0.709342 -0.704865 37.1377 27.4193)" stroke="white"/>
<line y1="-0.5" x2="3.15517" y2="-0.5" transform="matrix(0.709342 0.704865 -0.709342 0.704865 34.8994 28.6774)" stroke="white"/>
<line y1="-0.5" x2="3.15517" y2="-0.5" transform="matrix(-0.709342 0.704865 -0.709342 -0.704865 37.1377 28.6774)" stroke="white"/>
<line y1="-0.5" x2="3.15517" y2="-0.5" transform="matrix(0.709342 0.704865 -0.709342 0.704865 34.8994 29.7258)" stroke="white"/>
<line y1="-0.5" x2="3.15517" y2="-0.5" transform="matrix(-0.709342 0.704865 -0.709342 -0.704865 37.1377 29.7258)" stroke="white"/>
<line y1="-0.5" x2="3.15517" y2="-0.5" transform="matrix(0.709342 0.704865 -0.709342 0.704865 34.8994 30.9839)" stroke="white"/>
<line y1="-0.5" x2="3.15517" y2="-0.5" transform="matrix(-0.709342 0.704865 -0.709342 -0.704865 37.1377 30.9839)" stroke="white"/>
<line y1="-0.5" x2="3.15516" y2="-0.5" transform="matrix(0.709342 0.704864 -0.709342 0.704864 34.8994 32.0322)" stroke="white"/>
<line y1="-0.5" x2="3.15516" y2="-0.5" transform="matrix(-0.709342 0.704864 -0.709342 -0.704864 37.1377 32.0322)" stroke="white"/>
<line y1="-0.5" x2="3.15517" y2="-0.5" transform="matrix(0.709342 0.704865 -0.709342 0.704865 34.8994 33.2903)" stroke="white"/>
<line y1="-0.5" x2="3.15517" y2="-0.5" transform="matrix(-0.709342 0.704865 -0.709342 -0.704865 37.1377 33.2903)" stroke="white"/>
<line y1="-0.5" x2="3.15517" y2="-0.5" transform="matrix(0.709342 0.704865 -0.709342 0.704865 34.8994 34.3387)" stroke="white"/>
<line y1="-0.5" x2="3.15517" y2="-0.5" transform="matrix(-0.709342 0.704865 -0.709342 -0.704865 37.1377 34.3387)" stroke="white"/>
<line y1="-0.5" x2="3.15517" y2="-0.5" transform="matrix(0.709342 0.704865 -0.709342 0.704865 34.8994 35.5968)" stroke="white"/>
<line y1="-0.5" x2="3.15517" y2="-0.5" transform="matrix(-0.709342 0.704865 -0.709342 -0.704865 37.1377 35.5968)" stroke="white"/>
<line y1="-0.5" x2="3.15517" y2="-0.5" transform="matrix(0.709342 0.704865 -0.709342 0.704865 34.8994 36.6451)" stroke="white"/>
<line y1="-0.5" x2="3.15517" y2="-0.5" transform="matrix(-0.709342 0.704865 -0.709342 -0.704865 37.1377 36.6451)" stroke="white"/>
<line y1="-0.5" x2="2.94482" y2="-0.5" transform="matrix(0.709341 0.704865 -0.709341 0.704865 34.8994 37.9032)" stroke="white"/>
<line y1="-0.5" x2="1.26206" y2="-0.5" transform="matrix(0.709343 0.704864 -0.709343 0.704864 34.8994 38.9517)" stroke="white"/>
<line y1="-0.5" x2="2.73448" y2="-0.5" transform="matrix(-0.709342 0.704865 -0.709342 -0.704865 37.1377 37.9032)" stroke="white"/>
<line y1="-0.5" x2="1.26206" y2="-0.5" transform="matrix(-0.709343 0.704864 -0.709343 -0.704864 37.1377 38.9517)" stroke="white"/>
<line x1="35.2617" y1="1" x2="35.2617" y2="40" stroke="white" stroke-width="3"/>
<path d="M43.046 4.56458L43.0668 4.75066C43.1227 5.25059 43.2779 5.73431 43.5234 6.17339L43.5312 6.1873C43.6295 6.36323 43.7129 6.54715 43.7804 6.73709V6.73709C44.1189 7.69033 44.0392 8.74223 43.5608 9.63354C43.5545 9.64526 43.5482 9.65697 43.542 9.66867C42.9675 10.739 42.9588 12.0239 43.5187 13.1018C43.6038 13.2656 43.6894 13.4304 43.7781 13.6012C44.1288 14.2764 44.36 15.0443 44.1191 15.7661C43.7413 16.8983 42.9405 17.7916 42.9405 19.1372" stroke="#FFCC6B"/>
<path d="M46.4219 21.9678L46.4427 22.1539C46.4986 22.6538 46.6539 23.1375 46.8994 23.5766L46.9072 23.5905C47.0055 23.7664 47.0889 23.9503 47.1563 24.1403V24.1403C47.4949 25.0935 47.4152 26.1454 46.9368 27.0367C46.9305 27.0485 46.9242 27.0602 46.9179 27.0719C46.3435 28.1422 46.3348 29.4271 46.8947 30.505C46.9798 30.6688 47.0654 30.8336 47.1541 31.0044C47.5048 31.6796 47.7359 32.4475 47.4951 33.1692C47.1173 34.3015 46.3164 35.1948 46.3164 36.5404" stroke="#FFCC6B"/>
<path d="M52.7525 4.35486L52.7733 4.54095C52.8292 5.04088 52.9845 5.52459 53.2299 5.96367L53.2377 5.97758C53.3361 6.15352 53.4194 6.33743 53.4869 6.52737V6.52737C53.8255 7.48061 53.7457 8.53251 53.2674 9.42383C53.2611 9.43555 53.2548 9.44725 53.2485 9.45895C52.6741 10.5292 52.6654 11.8141 53.2253 12.8921C53.3103 13.0559 53.3959 13.2207 53.4846 13.3915C53.8354 14.0667 54.0665 14.8345 53.8257 15.5563C53.4479 16.6886 52.647 17.5819 52.647 18.9274" stroke="#FFCC6B"/>
<path d="M57.6584 8.75806L57.6709 8.86621C57.7062 9.171 57.8036 9.46531 57.9572 9.73092L57.963 9.7409C58.0236 9.84575 58.0751 9.95562 58.1168 10.0693V10.0693C58.3282 10.6447 58.2787 11.2836 57.9812 11.8196C57.9769 11.8272 57.9727 11.8348 57.9685 11.8424C57.6109 12.4867 57.6055 13.2686 57.9542 13.9178C58.0076 14.0171 58.0612 14.1171 58.1169 14.2207C58.3353 14.6273 58.4793 15.0934 58.3284 15.5296C58.0919 16.2127 57.5925 16.7523 57.5925 17.5645" stroke="#C19351"/>
<path d="M62.9333 6.87097L62.9458 6.97912C62.9811 7.28391 63.0785 7.57822 63.2321 7.84384L63.2379 7.85382C63.2985 7.95866 63.35 8.06853 63.3917 8.18221V8.18221C63.6031 8.75763 63.5536 9.39655 63.2561 9.93252C63.2518 9.94011 63.2476 9.9477 63.2434 9.95528C62.8858 10.5996 62.8804 11.3816 63.2291 12.0308C63.2825 12.1301 63.3361 12.23 63.3918 12.3336C63.6102 12.7402 63.7542 13.2063 63.6033 13.6425C63.3668 14.3256 62.8674 14.8652 62.8674 15.6774" stroke="#FFD66B"/>
<path d="M5.11692 27.4193L5.12943 27.5275C5.16467 27.8323 5.2621 28.1266 5.41569 28.3922L5.42146 28.4022C5.48208 28.507 5.53356 28.6169 5.57532 28.7306V28.7306C5.78669 29.306 5.73717 29.9449 5.43965 30.4809C5.43544 30.4885 5.43123 30.496 5.42702 30.5036C5.06937 31.1479 5.06398 31.9299 5.41272 32.5791C5.46606 32.6784 5.51974 32.7783 5.57539 32.8819C5.79383 33.2886 5.93783 33.7546 5.78686 34.1908C5.55043 34.874 5.05098 35.4135 5.05098 36.2258" stroke="#C19351"/>
<path d="M12.2912 5.82263L12.3037 5.93078C12.339 6.23557 12.4364 6.52988 12.59 6.7955L12.5958 6.80548C12.6564 6.91032 12.7079 7.02019 12.7496 7.13387V7.13387C12.961 7.70929 12.9115 8.34821 12.614 8.88418C12.6098 8.89177 12.6055 8.89936 12.6013 8.90694C12.2437 9.55126 12.2383 10.3332 12.587 10.9824C12.6404 11.0817 12.6941 11.1816 12.7497 11.2852C12.9681 11.6919 13.1121 12.1579 12.9612 12.5941C12.7247 13.2773 12.2253 13.8169 12.2253 14.6291" stroke="#C19351"/>
<path d="M28.7502 5.82263L28.7627 5.93078C28.798 6.23557 28.8954 6.52988 29.049 6.7955L29.0548 6.80548C29.1154 6.91032 29.1669 7.02019 29.2086 7.13387V7.13387C29.42 7.70929 29.3705 8.34821 29.073 8.88418C29.0687 8.89177 29.0645 8.89936 29.0603 8.90694C28.7027 9.55126 28.6973 10.3332 29.046 10.9824C29.0994 11.0817 29.153 11.1816 29.2087 11.2852C29.4271 11.6919 29.5711 12.1579 29.4202 12.5941C29.1837 13.2773 28.6843 13.8169 28.6843 14.6291" stroke="#C19351"/>
<path d="M16.9333 26.1613L16.9458 26.2694C16.9811 26.5742 17.0785 26.8685 17.2321 27.1341L17.2379 27.1441C17.2985 27.2489 17.35 27.3588 17.3917 27.4725V27.4725C17.6031 28.0479 17.5536 28.6868 17.2561 29.2228C17.2518 29.2304 17.2476 29.238 17.2434 29.2456C16.8858 29.8899 16.8804 30.6718 17.2291 31.321C17.2825 31.4203 17.3361 31.5203 17.3918 31.6239C17.6102 32.0305 17.7542 32.4966 17.6033 32.9328C17.3668 33.6159 16.8674 34.1555 16.8674 34.9677" stroke="#C19351"/>
<path d="M41.1994 28.6774L41.2119 28.7855C41.2472 29.0903 41.3446 29.3846 41.4982 29.6502L41.504 29.6602C41.5646 29.7651 41.6161 29.8749 41.6578 29.9886V29.9886C41.8692 30.564 41.8197 31.2029 41.5222 31.7389C41.518 31.7465 41.5137 31.7541 41.5095 31.7617C41.1519 32.406 41.1465 33.188 41.4952 33.8371C41.5486 33.9365 41.6023 34.0364 41.6579 34.14C41.8763 34.5466 42.0203 35.0127 41.8694 35.4489C41.633 36.132 41.1335 36.6716 41.1335 37.4838" stroke="#C19351"/>
<path d="M51.3279 26.1613L51.3404 26.2694C51.3756 26.5742 51.473 26.8685 51.6266 27.1341L51.6324 27.1441C51.693 27.2489 51.7445 27.3588 51.7863 27.4725V27.4725C51.9976 28.0479 51.9481 28.6868 51.6506 29.2228C51.6464 29.2304 51.6422 29.238 51.638 29.2456C51.2803 29.8899 51.2749 30.6718 51.6237 31.321C51.677 31.4203 51.7307 31.5203 51.7863 31.6239C52.0048 32.0305 52.1488 32.4966 51.9978 32.9328C51.7614 33.6159 51.2619 34.1555 51.2619 34.9677" stroke="#C19351"/>
<path d="M47.3186 6.45166L47.3311 6.55981C47.3663 6.8646 47.4638 7.15891 47.6173 7.42452L47.6231 7.43451C47.6837 7.53935 47.7352 7.64922 47.777 7.7629V7.7629C47.9883 8.33832 47.9388 8.97724 47.6413 9.51321C47.6371 9.5208 47.6329 9.52839 47.6287 9.53596C47.271 10.1803 47.2656 10.9622 47.6144 11.6114C47.6677 11.7107 47.7214 11.8107 47.7771 11.9143C47.9955 12.3209 48.1395 12.787 47.9885 13.2232C47.7521 13.9063 47.2526 14.4459 47.2526 15.2581" stroke="#C19351"/>
<path d="M60.3487 22.3871L60.3695 22.5732C60.4254 23.0731 60.5807 23.5568 60.8261 23.9959L60.8339 24.0098C60.9323 24.1857 61.0156 24.3697 61.0831 24.5596V24.5596C61.4217 25.5128 61.3419 26.5647 60.8635 27.4561C60.8573 27.4678 60.851 27.4795 60.8447 27.4912C60.2702 28.5615 60.2616 29.8464 60.8215 30.9243C60.9065 31.0881 60.9921 31.2529 61.0808 31.4237C61.4316 32.0989 61.6627 32.8668 61.4219 33.5886C61.0441 34.7208 60.2432 35.6141 60.2432 36.9597" stroke="#FFCC6B"/>
<path d="M26.1651 20.5L26.1859 20.6861C26.2418 21.186 26.3971 21.6697 26.6425 22.1088L26.6503 22.1227C26.7487 22.2987 26.832 22.4826 26.8995 22.6725V22.6725C27.2381 23.6258 27.1583 24.6777 26.6799 25.569C26.6737 25.5807 26.6674 25.5924 26.6611 25.6041C26.0867 26.6744 26.078 27.9593 26.6379 29.0372C26.7229 29.201 26.8085 29.3658 26.8972 29.5366C27.248 30.2119 27.4791 30.9797 27.2383 31.7015C26.8605 32.8337 26.0596 33.727 26.0596 35.0726" stroke="#FFCC6B"/>
<path d="M19.6241 5.4032L19.6449 5.58929C19.7008 6.08922 19.856 6.57293 20.1015 7.01201L20.1093 7.02592C20.2077 7.20186 20.291 7.38577 20.3585 7.57571V7.57571C20.6971 8.52895 20.6173 9.58085 20.1389 10.4722C20.1326 10.4839 20.1264 10.4956 20.1201 10.5073C19.5456 11.5776 19.537 12.8625 20.0969 13.9404C20.1819 14.1042 20.2675 14.269 20.3562 14.4398C20.707 15.1151 20.9381 15.8829 20.6972 16.6047C20.3195 17.7369 19.5186 18.6302 19.5186 19.9758" stroke="#FFCC6B"/>
<path d="M12.6607 22.3871L12.6815 22.5732C12.7374 23.0731 12.8927 23.5568 13.1381 23.9959L13.1459 24.0098C13.2443 24.1857 13.3276 24.3697 13.3951 24.5596V24.5596C13.7337 25.5128 13.6539 26.5647 13.1756 27.4561C13.1693 27.4678 13.163 27.4795 13.1567 27.4912C12.5823 28.5615 12.5736 29.8464 13.1335 30.9243C13.2185 31.0881 13.3041 31.2529 13.3928 31.4237C13.7436 32.0989 13.9747 32.8668 13.7339 33.5886C13.3561 34.7208 12.5552 35.6141 12.5552 36.9597" stroke="#FFCC6B"/>
<path d="M8.01812 4.56458L8.03893 4.75066C8.09483 5.25059 8.25008 5.73431 8.49557 6.17339L8.50334 6.1873C8.60171 6.36323 8.68506 6.54715 8.75253 6.73709V6.73709C9.0911 7.69033 9.01136 8.74223 8.53298 9.63355C8.52669 9.64526 8.5204 9.65697 8.51412 9.66867C7.93968 10.739 7.931 12.0239 8.4909 13.1018C8.57597 13.2656 8.66155 13.4304 8.75027 13.6012C9.101 14.2764 9.33212 15.0443 9.09129 15.7661C8.71351 16.8983 7.91262 17.7916 7.91262 19.1372" stroke="#FFCC6B"/>
<path d="M43.046 4.56458L43.0668 4.75066C43.1227 5.25059 43.2779 5.73431 43.5234 6.17339L43.5312 6.1873C43.6295 6.36323 43.7129 6.54715 43.7804 6.73709V6.73709C44.1189 7.69033 44.0392 8.74223 43.5608 9.63354C43.5545 9.64526 43.5482 9.65697 43.542 9.66867C42.9675 10.739 42.9588 12.0239 43.5187 13.1018C43.6038 13.2656 43.6894 13.4304 43.7781 13.6012C44.1288 14.2764 44.36 15.0443 44.1191 15.7661C43.7413 16.8983 42.9405 17.7916 42.9405 19.1372" stroke="#FFCC6B"/>
<path d="M46.4219 21.9678L46.4427 22.1539C46.4986 22.6538 46.6539 23.1375 46.8994 23.5766L46.9072 23.5905C47.0055 23.7664 47.0889 23.9503 47.1563 24.1403V24.1403C47.4949 25.0935 47.4152 26.1454 46.9368 27.0367C46.9305 27.0485 46.9242 27.0602 46.9179 27.0719C46.3435 28.1422 46.3348 29.4271 46.8947 30.505C46.9798 30.6688 47.0654 30.8336 47.1541 31.0044C47.5048 31.6796 47.7359 32.4475 47.4951 33.1692C47.1173 34.3015 46.3164 35.1948 46.3164 36.5404" stroke="#FFCC6B"/>
<path d="M52.7525 4.35486L52.7733 4.54095C52.8292 5.04088 52.9845 5.52459 53.2299 5.96367L53.2377 5.97758C53.3361 6.15352 53.4194 6.33743 53.4869 6.52737V6.52737C53.8255 7.48061 53.7457 8.53251 53.2674 9.42383C53.2611 9.43555 53.2548 9.44725 53.2485 9.45895C52.6741 10.5292 52.6654 11.8141 53.2253 12.8921C53.3103 13.0559 53.3959 13.2207 53.4846 13.3915C53.8354 14.0667 54.0665 14.8345 53.8257 15.5563C53.4479 16.6886 52.647 17.5819 52.647 18.9274" stroke="#FFCC6B"/>
<path d="M57.6584 8.75806L57.6709 8.86621C57.7062 9.171 57.8036 9.46531 57.9572 9.73092L57.963 9.7409C58.0236 9.84575 58.0751 9.95562 58.1168 10.0693V10.0693C58.3282 10.6447 58.2787 11.2836 57.9812 11.8196C57.9769 11.8272 57.9727 11.8348 57.9685 11.8424C57.6109 12.4867 57.6055 13.2686 57.9542 13.9178C58.0076 14.0171 58.0612 14.1171 58.1169 14.2207C58.3353 14.6273 58.4793 15.0934 58.3284 15.5296C58.0919 16.2127 57.5925 16.7523 57.5925 17.5645" stroke="#C19351"/>
<path d="M62.9333 6.87097L62.9458 6.97912C62.9811 7.28391 63.0785 7.57822 63.2321 7.84384L63.2379 7.85382C63.2985 7.95866 63.35 8.06853 63.3917 8.18221V8.18221C63.6031 8.75763 63.5536 9.39655 63.2561 9.93252C63.2518 9.94011 63.2476 9.9477 63.2434 9.95528C62.8858 10.5996 62.8804 11.3816 63.2291 12.0308C63.2825 12.1301 63.3361 12.23 63.3918 12.3336C63.6102 12.7402 63.7542 13.2063 63.6033 13.6425C63.3668 14.3256 62.8674 14.8652 62.8674 15.6774" stroke="#FFD66B"/>
<path d="M5.11692 27.4193L5.12943 27.5275C5.16467 27.8323 5.2621 28.1266 5.41569 28.3922L5.42146 28.4022C5.48208 28.507 5.53356 28.6169 5.57532 28.7306V28.7306C5.78669 29.306 5.73717 29.9449 5.43965 30.4809C5.43544 30.4885 5.43123 30.496 5.42702 30.5036C5.06937 31.1479 5.06398 31.9299 5.41272 32.5791C5.46606 32.6784 5.51974 32.7783 5.57539 32.8819C5.79383 33.2886 5.93783 33.7546 5.78686 34.1908C5.55043 34.874 5.05098 35.4135 5.05098 36.2258" stroke="#C19351"/>
<path d="M12.2912 5.82263L12.3037 5.93078C12.339 6.23557 12.4364 6.52988 12.59 6.7955L12.5958 6.80548C12.6564 6.91032 12.7079 7.02019 12.7496 7.13387V7.13387C12.961 7.70929 12.9115 8.34821 12.614 8.88418C12.6098 8.89177 12.6055 8.89936 12.6013 8.90694C12.2437 9.55126 12.2383 10.3332 12.587 10.9824C12.6404 11.0817 12.6941 11.1816 12.7497 11.2852C12.9681 11.6919 13.1121 12.1579 12.9612 12.5941C12.7247 13.2773 12.2253 13.8169 12.2253 14.6291" stroke="#C19351"/>
<path d="M28.7502 5.82263L28.7627 5.93078C28.798 6.23557 28.8954 6.52988 29.049 6.7955L29.0548 6.80548C29.1154 6.91032 29.1669 7.02019 29.2086 7.13387V7.13387C29.42 7.70929 29.3705 8.34821 29.073 8.88418C29.0687 8.89177 29.0645 8.89936 29.0603 8.90694C28.7027 9.55126 28.6973 10.3332 29.046 10.9824C29.0994 11.0817 29.153 11.1816 29.2087 11.2852C29.4271 11.6919 29.5711 12.1579 29.4202 12.5941C29.1837 13.2773 28.6843 13.8169 28.6843 14.6291" stroke="#C19351"/>
<path d="M16.9333 26.1613L16.9458 26.2694C16.9811 26.5742 17.0785 26.8685 17.2321 27.1341L17.2379 27.1441C17.2985 27.2489 17.35 27.3588 17.3917 27.4725V27.4725C17.6031 28.0479 17.5536 28.6868 17.2561 29.2228C17.2518 29.2304 17.2476 29.238 17.2434 29.2456C16.8858 29.8899 16.8804 30.6718 17.2291 31.321C17.2825 31.4203 17.3361 31.5203 17.3918 31.6239C17.6102 32.0305 17.7542 32.4966 17.6033 32.9328C17.3668 33.6159 16.8674 34.1555 16.8674 34.9677" stroke="#C19351"/>
<path d="M41.1994 28.6774L41.2119 28.7855C41.2472 29.0903 41.3446 29.3846 41.4982 29.6502L41.504 29.6602C41.5646 29.7651 41.6161 29.8749 41.6578 29.9886V29.9886C41.8692 30.564 41.8197 31.2029 41.5222 31.7389C41.518 31.7465 41.5137 31.7541 41.5095 31.7617C41.1519 32.406 41.1465 33.188 41.4952 33.8371C41.5486 33.9365 41.6023 34.0364 41.6579 34.14C41.8763 34.5466 42.0203 35.0127 41.8694 35.4489C41.633 36.132 41.1335 36.6716 41.1335 37.4838" stroke="#C19351"/>
<path d="M51.3279 26.1613L51.3404 26.2694C51.3756 26.5742 51.473 26.8685 51.6266 27.1341L51.6324 27.1441C51.693 27.2489 51.7445 27.3588 51.7863 27.4725V27.4725C51.9976 28.0479 51.9481 28.6868 51.6506 29.2228C51.6464 29.2304 51.6422 29.238 51.638 29.2456C51.2803 29.8899 51.2749 30.6718 51.6237 31.321C51.677 31.4203 51.7307 31.5203 51.7863 31.6239C52.0048 32.0305 52.1488 32.4966 51.9978 32.9328C51.7614 33.6159 51.2619 34.1555 51.2619 34.9677" stroke="#C19351"/>
<path d="M47.3186 6.45166L47.3311 6.55981C47.3663 6.8646 47.4638 7.15891 47.6173 7.42452L47.6231 7.43451C47.6837 7.53935 47.7352 7.64922 47.777 7.7629V7.7629C47.9883 8.33832 47.9388 8.97724 47.6413 9.51321C47.6371 9.5208 47.6329 9.52839 47.6287 9.53596C47.271 10.1803 47.2656 10.9622 47.6144 11.6114C47.6677 11.7107 47.7214 11.8107 47.7771 11.9143C47.9955 12.3209 48.1395 12.787 47.9885 13.2232C47.7521 13.9063 47.2526 14.4459 47.2526 15.2581" stroke="#C19351"/>
<path d="M60.3487 22.3871L60.3695 22.5732C60.4254 23.0731 60.5807 23.5568 60.8261 23.9959L60.8339 24.0098C60.9323 24.1857 61.0156 24.3697 61.0831 24.5596V24.5596C61.4217 25.5128 61.3419 26.5647 60.8635 27.4561C60.8573 27.4678 60.851 27.4795 60.8447 27.4912C60.2702 28.5615 60.2616 29.8464 60.8215 30.9243C60.9065 31.0881 60.9921 31.2529 61.0808 31.4237C61.4316 32.0989 61.6627 32.8668 61.4219 33.5886C61.0441 34.7208 60.2432 35.6141 60.2432 36.9597" stroke="#FFCC6B"/>
<path d="M26.1651 20.5L26.1859 20.6861C26.2418 21.186 26.3971 21.6697 26.6425 22.1088L26.6503 22.1227C26.7487 22.2987 26.832 22.4826 26.8995 22.6725V22.6725C27.2381 23.6258 27.1583 24.6777 26.6799 25.569C26.6737 25.5807 26.6674 25.5924 26.6611 25.6041C26.0867 26.6744 26.078 27.9593 26.6379 29.0372C26.7229 29.201 26.8085 29.3658 26.8972 29.5366C27.248 30.2119 27.4791 30.9797 27.2383 31.7015C26.8605 32.8337 26.0596 33.727 26.0596 35.0726" stroke="#FFCC6B"/>
<path d="M19.6241 5.4032L19.6449 5.58929C19.7008 6.08922 19.856 6.57293 20.1015 7.01201L20.1093 7.02592C20.2077 7.20186 20.291 7.38577 20.3585 7.57571V7.57571C20.6971 8.52895 20.6173 9.58085 20.1389 10.4722C20.1326 10.4839 20.1264 10.4956 20.1201 10.5073C19.5456 11.5776 19.537 12.8625 20.0969 13.9404C20.1819 14.1042 20.2675 14.269 20.3562 14.4398C20.707 15.1151 20.9381 15.8829 20.6972 16.6047C20.3195 17.7369 19.5186 18.6302 19.5186 19.9758" stroke="#FFCC6B"/>
<path d="M12.6607 22.3871L12.6815 22.5732C12.7374 23.0731 12.8927 23.5568 13.1381 23.9959L13.1459 24.0098C13.2443 24.1857 13.3276 24.3697 13.3951 24.5596V24.5596C13.7337 25.5128 13.6539 26.5647 13.1756 27.4561C13.1693 27.4678 13.163 27.4795 13.1567 27.4912C12.5823 28.5615 12.5736 29.8464 13.1335 30.9243C13.2185 31.0881 13.3041 31.2529 13.3928 31.4237C13.7436 32.0989 13.9747 32.8668 13.7339 33.5886C13.3561 34.7208 12.5552 35.6141 12.5552 36.9597" stroke="#FFCC6B"/>
<path d="M8.01812 4.56458L8.03893 4.75066C8.09483 5.25059 8.25008 5.73431 8.49557 6.17339L8.50334 6.1873C8.60171 6.36323 8.68506 6.54715 8.75253 6.73709V6.73709C9.0911 7.69033 9.01136 8.74223 8.53298 9.63355C8.52669 9.64526 8.5204 9.65697 8.51412 9.66867C7.93968 10.739 7.931 12.0239 8.4909 13.1018C8.57597 13.2656 8.66155 13.4304 8.75027 13.6012C9.101 14.2764 9.33212 15.0443 9.09129 15.7661C8.71351 16.8983 7.91262 17.7916 7.91262 19.1372" stroke="#FFCC6B"/>
</svg>
