<svg width="187" height="327" viewBox="0 0 187 327" fill="none" xmlns="http://www.w3.org/2000/svg">
<rect x="1" width="186" height="327" fill="#2A74CD"/>
<line x1="1" y1="41.5" x2="187" y2="41.5" stroke="white" stroke-width="5"/>
<line x1="1" y1="280.5" x2="187" y2="280.5" stroke="white" stroke-width="5"/>
<rect x="92" y="35" width="4" height="257" fill="white"/>
<line x1="1" y1="154.5" x2="187" y2="154.5" stroke="white" stroke-width="3"/>
<line x1="0.646447" y1="166.253" x2="11.253" y2="155.646" stroke="white"/>
<line x1="1.35355" y1="155.646" x2="11.9602" y2="166.253" stroke="white"/>
<line x1="1.35355" y1="160.646" x2="7.01041" y2="166.303" stroke="white"/>
<line x1="0.646447" y1="161.303" x2="6.3033" y2="155.646" stroke="white"/>
<line x1="5.64645" y1="166.253" x2="16.253" y2="155.646" stroke="white"/>
<line x1="6.35355" y1="155.646" x2="16.9602" y2="166.253" stroke="white"/>
<line x1="11.6464" y1="166.253" x2="22.253" y2="155.646" stroke="white"/>
<line x1="12.3536" y1="155.646" x2="22.9602" y2="166.253" stroke="white"/>
<line x1="16.6464" y1="166.253" x2="27.253" y2="155.646" stroke="white"/>
<line x1="17.3536" y1="155.646" x2="27.9602" y2="166.253" stroke="white"/>
<line x1="22.6464" y1="166.253" x2="33.253" y2="155.646" stroke="white"/>
<line x1="23.3536" y1="155.646" x2="33.9602" y2="166.253" stroke="white"/>
<line x1="27.6464" y1="166.253" x2="38.253" y2="155.646" stroke="white"/>
<line x1="28.3536" y1="155.646" x2="38.9602" y2="166.253" stroke="white"/>
<line x1="33.6464" y1="166.253" x2="44.253" y2="155.646" stroke="white"/>
<line x1="34.3536" y1="155.646" x2="44.9602" y2="166.253" stroke="white"/>
<line x1="38.6464" y1="166.253" x2="49.253" y2="155.646" stroke="white"/>
<line x1="39.3536" y1="155.646" x2="49.9602" y2="166.253" stroke="white"/>
<line x1="44.6464" y1="166.253" x2="55.253" y2="155.646" stroke="white"/>
<line x1="45.3536" y1="155.646" x2="55.9602" y2="166.253" stroke="white"/>
<line x1="49.6464" y1="166.253" x2="60.253" y2="155.646" stroke="white"/>
<line x1="50.3536" y1="155.646" x2="60.9602" y2="166.253" stroke="white"/>
<line x1="55.6464" y1="166.253" x2="66.2531" y2="155.646" stroke="white"/>
<line x1="56.3536" y1="155.646" x2="66.9602" y2="166.253" stroke="white"/>
<line x1="60.6464" y1="166.253" x2="71.2531" y2="155.646" stroke="white"/>
<line x1="61.3536" y1="155.646" x2="71.9602" y2="166.253" stroke="white"/>
<line x1="66.6464" y1="166.253" x2="77.2531" y2="155.646" stroke="white"/>
<line x1="67.3536" y1="155.646" x2="77.9602" y2="166.253" stroke="white"/>
<line x1="71.6464" y1="166.253" x2="82.2531" y2="155.646" stroke="white"/>
<line x1="72.3536" y1="155.646" x2="82.9602" y2="166.253" stroke="white"/>
<line x1="77.6464" y1="166.253" x2="88.2531" y2="155.646" stroke="white"/>
<line x1="78.3536" y1="155.646" x2="88.9602" y2="166.253" stroke="white"/>
<line x1="82.6464" y1="166.253" x2="93.2531" y2="155.646" stroke="white"/>
<line x1="83.3536" y1="155.646" x2="93.9602" y2="166.253" stroke="white"/>
<line x1="88.6464" y1="166.253" x2="99.2531" y2="155.646" stroke="white"/>
<line x1="89.3536" y1="155.646" x2="99.9602" y2="166.253" stroke="white"/>
<line x1="93.6464" y1="166.253" x2="104.253" y2="155.646" stroke="white"/>
<line x1="94.3536" y1="155.646" x2="104.96" y2="166.253" stroke="white"/>
<line x1="99.6464" y1="166.253" x2="110.253" y2="155.646" stroke="white"/>
<line x1="100.354" y1="155.646" x2="110.96" y2="166.253" stroke="white"/>
<line x1="104.646" y1="166.253" x2="115.253" y2="155.646" stroke="white"/>
<line x1="105.354" y1="155.646" x2="115.96" y2="166.253" stroke="white"/>
<line x1="110.646" y1="166.253" x2="121.253" y2="155.646" stroke="white"/>
<line x1="111.354" y1="155.646" x2="121.96" y2="166.253" stroke="white"/>
<line x1="115.646" y1="166.253" x2="126.253" y2="155.646" stroke="white"/>
<line x1="116.354" y1="155.646" x2="126.96" y2="166.253" stroke="white"/>
<line x1="121.646" y1="166.253" x2="132.253" y2="155.646" stroke="white"/>
<line x1="122.354" y1="155.646" x2="132.96" y2="166.253" stroke="white"/>
<line x1="126.646" y1="166.253" x2="137.253" y2="155.646" stroke="white"/>
<line x1="127.354" y1="155.646" x2="137.96" y2="166.253" stroke="white"/>
<line x1="132.646" y1="166.253" x2="143.253" y2="155.646" stroke="white"/>
<line x1="133.354" y1="155.646" x2="143.96" y2="166.253" stroke="white"/>
<line x1="137.646" y1="166.253" x2="148.253" y2="155.646" stroke="white"/>
<line x1="138.354" y1="155.646" x2="148.96" y2="166.253" stroke="white"/>
<line x1="143.646" y1="166.253" x2="154.253" y2="155.646" stroke="white"/>
<line x1="144.354" y1="155.646" x2="154.96" y2="166.253" stroke="white"/>
<line x1="148.646" y1="166.253" x2="159.253" y2="155.646" stroke="white"/>
<line x1="149.354" y1="155.646" x2="159.96" y2="166.253" stroke="white"/>
<line x1="154.646" y1="166.253" x2="165.253" y2="155.646" stroke="white"/>
<line x1="155.354" y1="155.646" x2="165.96" y2="166.253" stroke="white"/>
<line x1="159.646" y1="166.253" x2="170.253" y2="155.646" stroke="white"/>
<line x1="160.354" y1="155.646" x2="170.96" y2="166.253" stroke="white"/>
<line x1="165.646" y1="166.253" x2="176.253" y2="155.646" stroke="white"/>
<line x1="166.354" y1="155.646" x2="176.96" y2="166.253" stroke="white"/>
<line x1="170.646" y1="166.253" x2="181.253" y2="155.646" stroke="white"/>
<line x1="171.354" y1="155.646" x2="181.96" y2="166.253" stroke="white"/>
<line x1="176.646" y1="166.253" x2="186.546" y2="156.354" stroke="white"/>
<line x1="181.646" y1="166.253" x2="185.889" y2="162.01" stroke="white"/>
<line x1="177.354" y1="155.646" x2="186.546" y2="164.839" stroke="white"/>
<line x1="182.354" y1="155.646" x2="186.596" y2="159.889" stroke="white"/>
<line x1="1" y1="170.5" x2="187" y2="170.5" stroke="white" stroke-width="3"/>
<line x1="1" y1="41.5" x2="187" y2="41.5" stroke="white" stroke-width="5"/>
<line x1="1" y1="280.5" x2="187" y2="280.5" stroke="white" stroke-width="5"/>
<rect x="92" y="35" width="4" height="257" fill="white"/>
<line x1="1" y1="154.5" x2="187" y2="154.5" stroke="white" stroke-width="3"/>
<line x1="0.646447" y1="166.253" x2="11.253" y2="155.646" stroke="white"/>
<line x1="1.35355" y1="155.646" x2="11.9602" y2="166.253" stroke="white"/>
<line x1="1.35355" y1="160.646" x2="7.01041" y2="166.303" stroke="white"/>
<line x1="0.646447" y1="161.303" x2="6.3033" y2="155.646" stroke="white"/>
<line x1="5.64645" y1="166.253" x2="16.253" y2="155.646" stroke="white"/>
<line x1="6.35355" y1="155.646" x2="16.9602" y2="166.253" stroke="white"/>
<line x1="11.6464" y1="166.253" x2="22.253" y2="155.646" stroke="white"/>
<line x1="12.3536" y1="155.646" x2="22.9602" y2="166.253" stroke="white"/>
<line x1="16.6464" y1="166.253" x2="27.253" y2="155.646" stroke="white"/>
<line x1="17.3536" y1="155.646" x2="27.9602" y2="166.253" stroke="white"/>
<line x1="22.6464" y1="166.253" x2="33.253" y2="155.646" stroke="white"/>
<line x1="23.3536" y1="155.646" x2="33.9602" y2="166.253" stroke="white"/>
<line x1="27.6464" y1="166.253" x2="38.253" y2="155.646" stroke="white"/>
<line x1="28.3536" y1="155.646" x2="38.9602" y2="166.253" stroke="white"/>
<line x1="33.6464" y1="166.253" x2="44.253" y2="155.646" stroke="white"/>
<line x1="34.3536" y1="155.646" x2="44.9602" y2="166.253" stroke="white"/>
<line x1="38.6464" y1="166.253" x2="49.253" y2="155.646" stroke="white"/>
<line x1="39.3536" y1="155.646" x2="49.9602" y2="166.253" stroke="white"/>
<line x1="44.6464" y1="166.253" x2="55.253" y2="155.646" stroke="white"/>
<line x1="45.3536" y1="155.646" x2="55.9602" y2="166.253" stroke="white"/>
<line x1="49.6464" y1="166.253" x2="60.253" y2="155.646" stroke="white"/>
<line x1="50.3536" y1="155.646" x2="60.9602" y2="166.253" stroke="white"/>
<line x1="55.6464" y1="166.253" x2="66.2531" y2="155.646" stroke="white"/>
<line x1="56.3536" y1="155.646" x2="66.9602" y2="166.253" stroke="white"/>
<line x1="60.6464" y1="166.253" x2="71.2531" y2="155.646" stroke="white"/>
<line x1="61.3536" y1="155.646" x2="71.9602" y2="166.253" stroke="white"/>
<line x1="66.6464" y1="166.253" x2="77.2531" y2="155.646" stroke="white"/>
<line x1="67.3536" y1="155.646" x2="77.9602" y2="166.253" stroke="white"/>
<line x1="71.6464" y1="166.253" x2="82.2531" y2="155.646" stroke="white"/>
<line x1="72.3536" y1="155.646" x2="82.9602" y2="166.253" stroke="white"/>
<line x1="77.6464" y1="166.253" x2="88.2531" y2="155.646" stroke="white"/>
<line x1="78.3536" y1="155.646" x2="88.9602" y2="166.253" stroke="white"/>
<line x1="82.6464" y1="166.253" x2="93.2531" y2="155.646" stroke="white"/>
<line x1="83.3536" y1="155.646" x2="93.9602" y2="166.253" stroke="white"/>
<line x1="88.6464" y1="166.253" x2="99.2531" y2="155.646" stroke="white"/>
<line x1="89.3536" y1="155.646" x2="99.9602" y2="166.253" stroke="white"/>
<line x1="93.6464" y1="166.253" x2="104.253" y2="155.646" stroke="white"/>
<line x1="94.3536" y1="155.646" x2="104.96" y2="166.253" stroke="white"/>
<line x1="99.6464" y1="166.253" x2="110.253" y2="155.646" stroke="white"/>
<line x1="100.354" y1="155.646" x2="110.96" y2="166.253" stroke="white"/>
<line x1="104.646" y1="166.253" x2="115.253" y2="155.646" stroke="white"/>
<line x1="105.354" y1="155.646" x2="115.96" y2="166.253" stroke="white"/>
<line x1="110.646" y1="166.253" x2="121.253" y2="155.646" stroke="white"/>
<line x1="111.354" y1="155.646" x2="121.96" y2="166.253" stroke="white"/>
<line x1="115.646" y1="166.253" x2="126.253" y2="155.646" stroke="white"/>
<line x1="116.354" y1="155.646" x2="126.96" y2="166.253" stroke="white"/>
<line x1="121.646" y1="166.253" x2="132.253" y2="155.646" stroke="white"/>
<line x1="122.354" y1="155.646" x2="132.96" y2="166.253" stroke="white"/>
<line x1="126.646" y1="166.253" x2="137.253" y2="155.646" stroke="white"/>
<line x1="127.354" y1="155.646" x2="137.96" y2="166.253" stroke="white"/>
<line x1="132.646" y1="166.253" x2="143.253" y2="155.646" stroke="white"/>
<line x1="133.354" y1="155.646" x2="143.96" y2="166.253" stroke="white"/>
<line x1="137.646" y1="166.253" x2="148.253" y2="155.646" stroke="white"/>
<line x1="138.354" y1="155.646" x2="148.96" y2="166.253" stroke="white"/>
<line x1="143.646" y1="166.253" x2="154.253" y2="155.646" stroke="white"/>
<line x1="144.354" y1="155.646" x2="154.96" y2="166.253" stroke="white"/>
<line x1="148.646" y1="166.253" x2="159.253" y2="155.646" stroke="white"/>
<line x1="149.354" y1="155.646" x2="159.96" y2="166.253" stroke="white"/>
<line x1="154.646" y1="166.253" x2="165.253" y2="155.646" stroke="white"/>
<line x1="155.354" y1="155.646" x2="165.96" y2="166.253" stroke="white"/>
<line x1="159.646" y1="166.253" x2="170.253" y2="155.646" stroke="white"/>
<line x1="160.354" y1="155.646" x2="170.96" y2="166.253" stroke="white"/>
<line x1="165.646" y1="166.253" x2="176.253" y2="155.646" stroke="white"/>
<line x1="166.354" y1="155.646" x2="176.96" y2="166.253" stroke="white"/>
<line x1="170.646" y1="166.253" x2="181.253" y2="155.646" stroke="white"/>
<line x1="171.354" y1="155.646" x2="181.96" y2="166.253" stroke="white"/>
<line x1="176.646" y1="166.253" x2="186.546" y2="156.354" stroke="white"/>
<line x1="181.646" y1="166.253" x2="185.889" y2="162.01" stroke="white"/>
<line x1="177.354" y1="155.646" x2="186.546" y2="164.839" stroke="white"/>
<line x1="182.354" y1="155.646" x2="186.596" y2="159.889" stroke="white"/>
<line x1="1" y1="170.5" x2="187" y2="170.5" stroke="white" stroke-width="3"/>
</svg>
