<svg width="329" height="19" viewBox="0 0 329 19" fill="none" xmlns="http://www.w3.org/2000/svg">
<line x1="143" y1="1.5" x2="329" y2="1.5" stroke="white" stroke-width="3"/>
<line x1="142.646" y1="13.2531" x2="153.253" y2="2.64647" stroke="white"/>
<line x1="143.354" y1="2.64645" x2="153.96" y2="13.253" stroke="white"/>
<line x1="143.354" y1="7.64645" x2="149.01" y2="13.3033" stroke="white"/>
<line x1="142.646" y1="8.30331" x2="148.303" y2="2.64645" stroke="white"/>
<line x1="147.646" y1="13.2531" x2="158.253" y2="2.64647" stroke="white"/>
<line x1="148.354" y1="2.64645" x2="158.96" y2="13.253" stroke="white"/>
<line x1="153.646" y1="13.2531" x2="164.253" y2="2.64647" stroke="white"/>
<line x1="154.354" y1="2.64645" x2="164.96" y2="13.253" stroke="white"/>
<line x1="158.646" y1="13.2531" x2="169.253" y2="2.64647" stroke="white"/>
<line x1="159.354" y1="2.64645" x2="169.96" y2="13.253" stroke="white"/>
<line x1="164.646" y1="13.2531" x2="175.253" y2="2.64647" stroke="white"/>
<line x1="165.354" y1="2.64645" x2="175.96" y2="13.253" stroke="white"/>
<line x1="169.646" y1="13.2531" x2="180.253" y2="2.64647" stroke="white"/>
<line x1="170.354" y1="2.64645" x2="180.96" y2="13.253" stroke="white"/>
<line x1="175.646" y1="13.2531" x2="186.253" y2="2.64647" stroke="white"/>
<line x1="176.354" y1="2.64645" x2="186.96" y2="13.253" stroke="white"/>
<line x1="180.646" y1="13.2531" x2="191.253" y2="2.64647" stroke="white"/>
<line x1="181.354" y1="2.64645" x2="191.96" y2="13.253" stroke="white"/>
<line x1="186.646" y1="13.2531" x2="197.253" y2="2.64647" stroke="white"/>
<line x1="187.354" y1="2.64645" x2="197.96" y2="13.253" stroke="white"/>
<line x1="191.646" y1="13.2531" x2="202.253" y2="2.64647" stroke="white"/>
<line x1="192.354" y1="2.64645" x2="202.96" y2="13.253" stroke="white"/>
<line x1="197.646" y1="13.2531" x2="208.253" y2="2.64647" stroke="white"/>
<line x1="198.354" y1="2.64645" x2="208.96" y2="13.253" stroke="white"/>
<line x1="202.646" y1="13.2531" x2="213.253" y2="2.64647" stroke="white"/>
<line x1="203.354" y1="2.64645" x2="213.96" y2="13.253" stroke="white"/>
<line x1="208.646" y1="13.2531" x2="219.253" y2="2.64647" stroke="white"/>
<line x1="209.354" y1="2.64645" x2="219.96" y2="13.253" stroke="white"/>
<line x1="213.646" y1="13.2531" x2="224.253" y2="2.64647" stroke="white"/>
<line x1="214.354" y1="2.64645" x2="224.96" y2="13.253" stroke="white"/>
<line x1="219.646" y1="13.2531" x2="230.253" y2="2.64647" stroke="white"/>
<line x1="220.354" y1="2.64645" x2="230.96" y2="13.253" stroke="white"/>
<line x1="224.646" y1="13.2531" x2="235.253" y2="2.64647" stroke="white"/>
<line x1="225.354" y1="2.64645" x2="235.96" y2="13.253" stroke="white"/>
<line x1="230.646" y1="13.2531" x2="241.253" y2="2.64647" stroke="white"/>
<line x1="231.354" y1="2.64645" x2="241.96" y2="13.253" stroke="white"/>
<line x1="235.646" y1="13.2531" x2="246.253" y2="2.64647" stroke="white"/>
<line x1="236.354" y1="2.64645" x2="246.96" y2="13.253" stroke="white"/>
<line x1="241.646" y1="13.2531" x2="252.253" y2="2.64647" stroke="white"/>
<line x1="242.354" y1="2.64645" x2="252.96" y2="13.253" stroke="white"/>
<line x1="246.646" y1="13.2531" x2="257.253" y2="2.64647" stroke="white"/>
<line x1="247.354" y1="2.64645" x2="257.96" y2="13.253" stroke="white"/>
<line x1="252.646" y1="13.2531" x2="263.253" y2="2.64647" stroke="white"/>
<line x1="253.354" y1="2.64645" x2="263.96" y2="13.253" stroke="white"/>
<line x1="257.646" y1="13.2531" x2="268.253" y2="2.64647" stroke="white"/>
<line x1="258.354" y1="2.64645" x2="268.96" y2="13.253" stroke="white"/>
<line x1="263.646" y1="13.2531" x2="274.253" y2="2.64647" stroke="white"/>
<line x1="264.354" y1="2.64645" x2="274.96" y2="13.253" stroke="white"/>
<line x1="268.646" y1="13.2531" x2="279.253" y2="2.64647" stroke="white"/>
<line x1="269.354" y1="2.64645" x2="279.96" y2="13.253" stroke="white"/>
<line x1="274.646" y1="13.2531" x2="285.253" y2="2.64647" stroke="white"/>
<line x1="275.354" y1="2.64645" x2="285.96" y2="13.253" stroke="white"/>
<line x1="279.646" y1="13.2531" x2="290.253" y2="2.64647" stroke="white"/>
<line x1="280.354" y1="2.64645" x2="290.96" y2="13.253" stroke="white"/>
<line x1="285.646" y1="13.2531" x2="296.253" y2="2.64647" stroke="white"/>
<line x1="286.354" y1="2.64645" x2="296.96" y2="13.253" stroke="white"/>
<line x1="290.646" y1="13.2531" x2="301.253" y2="2.64647" stroke="white"/>
<line x1="291.354" y1="2.64645" x2="301.96" y2="13.253" stroke="white"/>
<line x1="296.646" y1="13.2531" x2="307.253" y2="2.64647" stroke="white"/>
<line x1="297.354" y1="2.64645" x2="307.96" y2="13.253" stroke="white"/>
<line x1="301.646" y1="13.2531" x2="312.253" y2="2.64647" stroke="white"/>
<line x1="302.354" y1="2.64645" x2="312.96" y2="13.253" stroke="white"/>
<line x1="307.646" y1="13.2531" x2="318.253" y2="2.64647" stroke="white"/>
<line x1="308.354" y1="2.64645" x2="318.96" y2="13.253" stroke="white"/>
<line x1="312.646" y1="13.2531" x2="323.253" y2="2.64647" stroke="white"/>
<line x1="313.354" y1="2.64645" x2="323.96" y2="13.253" stroke="white"/>
<line x1="318.646" y1="13.2531" x2="328.546" y2="3.35358" stroke="white"/>
<line x1="323.646" y1="13.2531" x2="327.889" y2="9.01043" stroke="white"/>
<line x1="319.354" y1="2.64645" x2="328.546" y2="11.8388" stroke="white"/>
<line x1="324.354" y1="2.64645" x2="328.596" y2="6.88909" stroke="white"/>
<line x1="143" y1="17.5" x2="329" y2="17.5" stroke="white" stroke-width="3"/>
<line x1="1" y1="1.5" x2="187" y2="1.5" stroke="white" stroke-width="3"/>
<line x1="0.646447" y1="13.2531" x2="11.253" y2="2.64647" stroke="white"/>
<line x1="1.35355" y1="2.64645" x2="11.9602" y2="13.253" stroke="white"/>
<line x1="1.35355" y1="7.64645" x2="7.01041" y2="13.3033" stroke="white"/>
<line x1="0.646447" y1="8.30331" x2="6.3033" y2="2.64645" stroke="white"/>
<line x1="5.64645" y1="13.2531" x2="16.253" y2="2.64647" stroke="white"/>
<line x1="6.35355" y1="2.64645" x2="16.9602" y2="13.253" stroke="white"/>
<line x1="11.6464" y1="13.2531" x2="22.253" y2="2.64647" stroke="white"/>
<line x1="12.3536" y1="2.64645" x2="22.9602" y2="13.253" stroke="white"/>
<line x1="16.6464" y1="13.2531" x2="27.253" y2="2.64647" stroke="white"/>
<line x1="17.3536" y1="2.64645" x2="27.9602" y2="13.253" stroke="white"/>
<line x1="22.6464" y1="13.2531" x2="33.253" y2="2.64647" stroke="white"/>
<line x1="23.3536" y1="2.64645" x2="33.9602" y2="13.253" stroke="white"/>
<line x1="27.6464" y1="13.2531" x2="38.253" y2="2.64647" stroke="white"/>
<line x1="28.3536" y1="2.64645" x2="38.9602" y2="13.253" stroke="white"/>
<line x1="33.6464" y1="13.2531" x2="44.253" y2="2.64647" stroke="white"/>
<line x1="34.3536" y1="2.64645" x2="44.9602" y2="13.253" stroke="white"/>
<line x1="38.6464" y1="13.2531" x2="49.253" y2="2.64647" stroke="white"/>
<line x1="39.3536" y1="2.64645" x2="49.9602" y2="13.253" stroke="white"/>
<line x1="44.6464" y1="13.2531" x2="55.253" y2="2.64647" stroke="white"/>
<line x1="45.3536" y1="2.64645" x2="55.9602" y2="13.253" stroke="white"/>
<line x1="49.6464" y1="13.2531" x2="60.253" y2="2.64647" stroke="white"/>
<line x1="50.3536" y1="2.64645" x2="60.9602" y2="13.253" stroke="white"/>
<line x1="55.6464" y1="13.2531" x2="66.2531" y2="2.64647" stroke="white"/>
<line x1="56.3536" y1="2.64645" x2="66.9602" y2="13.253" stroke="white"/>
<line x1="60.6464" y1="13.2531" x2="71.2531" y2="2.64647" stroke="white"/>
<line x1="61.3536" y1="2.64645" x2="71.9602" y2="13.253" stroke="white"/>
<line x1="66.6464" y1="13.2531" x2="77.2531" y2="2.64647" stroke="white"/>
<line x1="67.3536" y1="2.64645" x2="77.9602" y2="13.253" stroke="white"/>
<line x1="71.6464" y1="13.2531" x2="82.2531" y2="2.64647" stroke="white"/>
<line x1="72.3536" y1="2.64645" x2="82.9602" y2="13.253" stroke="white"/>
<line x1="77.6464" y1="13.2531" x2="88.2531" y2="2.64647" stroke="white"/>
<line x1="78.3536" y1="2.64645" x2="88.9602" y2="13.253" stroke="white"/>
<line x1="82.6464" y1="13.2531" x2="93.2531" y2="2.64647" stroke="white"/>
<line x1="83.3536" y1="2.64645" x2="93.9602" y2="13.253" stroke="white"/>
<line x1="88.6464" y1="13.2531" x2="99.2531" y2="2.64647" stroke="white"/>
<line x1="89.3536" y1="2.64645" x2="99.9602" y2="13.253" stroke="white"/>
<line x1="93.6464" y1="13.2531" x2="104.253" y2="2.64647" stroke="white"/>
<line x1="94.3536" y1="2.64645" x2="104.96" y2="13.253" stroke="white"/>
<line x1="99.6464" y1="13.2531" x2="110.253" y2="2.64647" stroke="white"/>
<line x1="100.354" y1="2.64645" x2="110.96" y2="13.253" stroke="white"/>
<line x1="104.646" y1="13.2531" x2="115.253" y2="2.64647" stroke="white"/>
<line x1="105.354" y1="2.64645" x2="115.96" y2="13.253" stroke="white"/>
<line x1="110.646" y1="13.2531" x2="121.253" y2="2.64647" stroke="white"/>
<line x1="111.354" y1="2.64645" x2="121.96" y2="13.253" stroke="white"/>
<line x1="115.646" y1="13.2531" x2="126.253" y2="2.64647" stroke="white"/>
<line x1="116.354" y1="2.64645" x2="126.96" y2="13.253" stroke="white"/>
<line x1="121.646" y1="13.2531" x2="132.253" y2="2.64647" stroke="white"/>
<line x1="122.354" y1="2.64645" x2="132.96" y2="13.253" stroke="white"/>
<line x1="126.646" y1="13.2531" x2="137.253" y2="2.64647" stroke="white"/>
<line x1="127.354" y1="2.64645" x2="137.96" y2="13.253" stroke="white"/>
<line x1="132.646" y1="13.2531" x2="143.253" y2="2.64647" stroke="white"/>
<line x1="133.354" y1="2.64645" x2="143.96" y2="13.253" stroke="white"/>
<line x1="137.646" y1="13.2531" x2="148.253" y2="2.64647" stroke="white"/>
<line x1="138.354" y1="2.64645" x2="148.96" y2="13.253" stroke="white"/>
<line x1="143.646" y1="13.2531" x2="154.253" y2="2.64647" stroke="white"/>
<line x1="144.354" y1="2.64645" x2="154.96" y2="13.253" stroke="white"/>
<line x1="148.646" y1="13.2531" x2="159.253" y2="2.64647" stroke="white"/>
<line x1="149.354" y1="2.64645" x2="159.96" y2="13.253" stroke="white"/>
<line x1="154.646" y1="13.2531" x2="165.253" y2="2.64647" stroke="white"/>
<line x1="155.354" y1="2.64645" x2="165.96" y2="13.253" stroke="white"/>
<line x1="159.646" y1="13.2531" x2="170.253" y2="2.64647" stroke="white"/>
<line x1="160.354" y1="2.64645" x2="170.96" y2="13.253" stroke="white"/>
<line x1="165.646" y1="13.2531" x2="176.253" y2="2.64647" stroke="white"/>
<line x1="166.354" y1="2.64645" x2="176.96" y2="13.253" stroke="white"/>
<line x1="170.646" y1="13.2531" x2="181.253" y2="2.64647" stroke="white"/>
<line x1="171.354" y1="2.64645" x2="181.96" y2="13.253" stroke="white"/>
<line x1="176.646" y1="13.2531" x2="186.546" y2="3.35358" stroke="white"/>
<line x1="181.646" y1="13.2531" x2="185.889" y2="9.01043" stroke="white"/>
<line x1="177.354" y1="2.64645" x2="186.546" y2="11.8388" stroke="white"/>
<line x1="182.354" y1="2.64645" x2="186.596" y2="6.88909" stroke="white"/>
<line x1="1" y1="17.5" x2="187" y2="17.5" stroke="white" stroke-width="3"/>
</svg>
