<svg width="109" height="64" viewBox="0 0 109 64" fill="none" xmlns="http://www.w3.org/2000/svg">
<rect x="109" y="1" width="62" height="109" transform="rotate(90 109 1)" fill="#2A74CD"/>
<line x1="96.8335" y1="1" x2="96.8335" y2="63" stroke="white" stroke-width="5"/>
<line x1="17.1665" y1="1" x2="17.1665" y2="63" stroke="white" stroke-width="5"/>
<rect x="97.3335" y="31.3334" width="1.33333" height="85.6667" transform="rotate(90 97.3335 31.3334)" fill="white"/>
<line x1="58.5" y1="1" x2="58.5" y2="63" stroke="white" stroke-width="3"/>
<line x1="53.8179" y1="0.646447" x2="57.3534" y2="4.18198" stroke="white"/>
<line x1="57.3536" y1="1.35355" x2="53.818" y2="4.88909" stroke="white"/>
<line x1="55.687" y1="1.35355" x2="53.8014" y2="3.23917" stroke="white"/>
<line x1="55.4678" y1="0.646446" x2="57.3534" y2="2.53206" stroke="white"/>
<line x1="53.8179" y1="2.31319" x2="57.3534" y2="5.84873" stroke="white"/>
<line x1="57.3536" y1="3.0203" x2="53.818" y2="6.55584" stroke="white"/>
<line x1="53.8179" y1="4.31319" x2="57.3534" y2="7.84873" stroke="white"/>
<line x1="57.3536" y1="5.0203" x2="53.818" y2="8.55584" stroke="white"/>
<line x1="53.8179" y1="5.9797" x2="57.3534" y2="9.51523" stroke="white"/>
<line x1="57.3536" y1="6.68681" x2="53.818" y2="10.2223" stroke="white"/>
<line x1="53.8179" y1="7.9797" x2="57.3534" y2="11.5152" stroke="white"/>
<line x1="57.3536" y1="8.68681" x2="53.818" y2="12.2223" stroke="white"/>
<line x1="53.8179" y1="9.64645" x2="57.3534" y2="13.182" stroke="white"/>
<line x1="57.3536" y1="10.3536" x2="53.818" y2="13.8891" stroke="white"/>
<line x1="53.8179" y1="11.6464" x2="57.3534" y2="15.182" stroke="white"/>
<line x1="57.3536" y1="12.3536" x2="53.818" y2="15.8891" stroke="white"/>
<line x1="53.8179" y1="13.3132" x2="57.3534" y2="16.8487" stroke="white"/>
<line x1="57.3536" y1="14.0203" x2="53.818" y2="17.5558" stroke="white"/>
<line x1="53.8179" y1="15.3132" x2="57.3534" y2="18.8487" stroke="white"/>
<line x1="57.3536" y1="16.0203" x2="53.818" y2="19.5558" stroke="white"/>
<line x1="53.8179" y1="16.9797" x2="57.3534" y2="20.5152" stroke="white"/>
<line x1="57.3536" y1="17.6868" x2="53.818" y2="21.2223" stroke="white"/>
<line x1="53.8179" y1="18.9797" x2="57.3534" y2="22.5152" stroke="white"/>
<line x1="57.3536" y1="19.6868" x2="53.818" y2="23.2223" stroke="white"/>
<line x1="53.8179" y1="20.6464" x2="57.3534" y2="24.182" stroke="white"/>
<line x1="57.3536" y1="21.3536" x2="53.818" y2="24.8891" stroke="white"/>
<line x1="53.8179" y1="22.6464" x2="57.3534" y2="26.182" stroke="white"/>
<line x1="57.3536" y1="23.3536" x2="53.818" y2="26.8891" stroke="white"/>
<line x1="53.8179" y1="24.3132" x2="57.3534" y2="27.8487" stroke="white"/>
<line x1="57.3536" y1="25.0203" x2="53.818" y2="28.5558" stroke="white"/>
<line x1="53.8179" y1="26.3132" x2="57.3534" y2="29.8487" stroke="white"/>
<line x1="57.3536" y1="27.0203" x2="53.818" y2="30.5558" stroke="white"/>
<line x1="53.8179" y1="27.9797" x2="57.3534" y2="31.5152" stroke="white"/>
<line x1="57.3536" y1="28.6868" x2="53.818" y2="32.2223" stroke="white"/>
<line x1="53.8179" y1="29.9797" x2="57.3534" y2="33.5152" stroke="white"/>
<line x1="57.3536" y1="30.6868" x2="53.818" y2="34.2223" stroke="white"/>
<line x1="53.8179" y1="31.6464" x2="57.3534" y2="35.182" stroke="white"/>
<line x1="57.3536" y1="32.3536" x2="53.818" y2="35.8891" stroke="white"/>
<line x1="53.8179" y1="33.6464" x2="57.3534" y2="37.182" stroke="white"/>
<line x1="57.3536" y1="34.3536" x2="53.818" y2="37.8891" stroke="white"/>
<line x1="53.8179" y1="35.3131" x2="57.3534" y2="38.8486" stroke="white"/>
<line x1="57.3536" y1="36.0202" x2="53.818" y2="39.5557" stroke="white"/>
<line x1="53.8179" y1="37.3131" x2="57.3534" y2="40.8486" stroke="white"/>
<line x1="57.3536" y1="38.0202" x2="53.818" y2="41.5557" stroke="white"/>
<line x1="53.8179" y1="38.9798" x2="57.3534" y2="42.5154" stroke="white"/>
<line x1="57.3536" y1="39.6869" x2="53.818" y2="43.2225" stroke="white"/>
<line x1="53.8179" y1="40.9798" x2="57.3534" y2="44.5154" stroke="white"/>
<line x1="57.3536" y1="41.6869" x2="53.818" y2="45.2225" stroke="white"/>
<line x1="53.8179" y1="42.6464" x2="57.3534" y2="46.182" stroke="white"/>
<line x1="57.3536" y1="43.3536" x2="53.818" y2="46.8891" stroke="white"/>
<line x1="53.8179" y1="44.6464" x2="57.3534" y2="48.182" stroke="white"/>
<line x1="57.3536" y1="45.3536" x2="53.818" y2="48.8891" stroke="white"/>
<line x1="53.8179" y1="46.3131" x2="57.3534" y2="49.8486" stroke="white"/>
<line x1="57.3536" y1="47.0202" x2="53.818" y2="50.5557" stroke="white"/>
<line x1="53.8179" y1="48.3131" x2="57.3534" y2="51.8486" stroke="white"/>
<line x1="57.3536" y1="49.0202" x2="53.818" y2="52.5557" stroke="white"/>
<line x1="53.8179" y1="49.9798" x2="57.3534" y2="53.5154" stroke="white"/>
<line x1="57.3536" y1="50.6869" x2="53.818" y2="54.2225" stroke="white"/>
<line x1="53.8179" y1="51.9798" x2="57.3534" y2="55.5154" stroke="white"/>
<line x1="57.3536" y1="52.6869" x2="53.818" y2="56.2225" stroke="white"/>
<line x1="53.8179" y1="53.6464" x2="57.3534" y2="57.182" stroke="white"/>
<line x1="57.3536" y1="54.3536" x2="53.818" y2="57.8891" stroke="white"/>
<line x1="53.8179" y1="55.6464" x2="57.3534" y2="59.182" stroke="white"/>
<line x1="57.3536" y1="56.3536" x2="53.818" y2="59.8891" stroke="white"/>
<line x1="53.8179" y1="57.3131" x2="57.3534" y2="60.8486" stroke="white"/>
<line x1="57.3536" y1="58.0202" x2="53.818" y2="61.5557" stroke="white"/>
<line x1="53.8179" y1="59.3131" x2="57.1177" y2="62.6129" stroke="white"/>
<line x1="53.8179" y1="60.9798" x2="55.2321" y2="62.394" stroke="white"/>
<line x1="57.3536" y1="60.0202" x2="54.2894" y2="63.0843" stroke="white"/>
<line x1="57.3536" y1="61.6869" x2="55.9393" y2="63.1011" stroke="white"/>
<line x1="53.1665" y1="1" x2="53.1665" y2="63" stroke="white" stroke-width="3"/>
<line x1="96.8335" y1="1" x2="96.8335" y2="63" stroke="white" stroke-width="5"/>
<line x1="17.1665" y1="1" x2="17.1665" y2="63" stroke="white" stroke-width="5"/>
<rect x="97.3335" y="31.3334" width="1.33333" height="85.6667" transform="rotate(90 97.3335 31.3334)" fill="white"/>
<line x1="58.5" y1="1" x2="58.5" y2="63" stroke="white" stroke-width="3"/>
<line x1="53.8179" y1="0.646447" x2="57.3534" y2="4.18198" stroke="white"/>
<line x1="57.3536" y1="1.35355" x2="53.818" y2="4.88909" stroke="white"/>
<line x1="55.687" y1="1.35355" x2="53.8014" y2="3.23917" stroke="white"/>
<line x1="55.4678" y1="0.646446" x2="57.3534" y2="2.53206" stroke="white"/>
<line x1="53.8179" y1="2.31319" x2="57.3534" y2="5.84873" stroke="white"/>
<line x1="57.3536" y1="3.0203" x2="53.818" y2="6.55584" stroke="white"/>
<line x1="53.8179" y1="4.31319" x2="57.3534" y2="7.84873" stroke="white"/>
<line x1="57.3536" y1="5.0203" x2="53.818" y2="8.55584" stroke="white"/>
<line x1="53.8179" y1="5.9797" x2="57.3534" y2="9.51523" stroke="white"/>
<line x1="57.3536" y1="6.68681" x2="53.818" y2="10.2223" stroke="white"/>
<line x1="53.8179" y1="7.9797" x2="57.3534" y2="11.5152" stroke="white"/>
<line x1="57.3536" y1="8.68681" x2="53.818" y2="12.2223" stroke="white"/>
<line x1="53.8179" y1="9.64645" x2="57.3534" y2="13.182" stroke="white"/>
<line x1="57.3536" y1="10.3536" x2="53.818" y2="13.8891" stroke="white"/>
<line x1="53.8179" y1="11.6464" x2="57.3534" y2="15.182" stroke="white"/>
<line x1="57.3536" y1="12.3536" x2="53.818" y2="15.8891" stroke="white"/>
<line x1="53.8179" y1="13.3132" x2="57.3534" y2="16.8487" stroke="white"/>
<line x1="57.3536" y1="14.0203" x2="53.818" y2="17.5558" stroke="white"/>
<line x1="53.8179" y1="15.3132" x2="57.3534" y2="18.8487" stroke="white"/>
<line x1="57.3536" y1="16.0203" x2="53.818" y2="19.5558" stroke="white"/>
<line x1="53.8179" y1="16.9797" x2="57.3534" y2="20.5152" stroke="white"/>
<line x1="57.3536" y1="17.6868" x2="53.818" y2="21.2223" stroke="white"/>
<line x1="53.8179" y1="18.9797" x2="57.3534" y2="22.5152" stroke="white"/>
<line x1="57.3536" y1="19.6868" x2="53.818" y2="23.2223" stroke="white"/>
<line x1="53.8179" y1="20.6464" x2="57.3534" y2="24.182" stroke="white"/>
<line x1="57.3536" y1="21.3536" x2="53.818" y2="24.8891" stroke="white"/>
<line x1="53.8179" y1="22.6464" x2="57.3534" y2="26.182" stroke="white"/>
<line x1="57.3536" y1="23.3536" x2="53.818" y2="26.8891" stroke="white"/>
<line x1="53.8179" y1="24.3132" x2="57.3534" y2="27.8487" stroke="white"/>
<line x1="57.3536" y1="25.0203" x2="53.818" y2="28.5558" stroke="white"/>
<line x1="53.8179" y1="26.3132" x2="57.3534" y2="29.8487" stroke="white"/>
<line x1="57.3536" y1="27.0203" x2="53.818" y2="30.5558" stroke="white"/>
<line x1="53.8179" y1="27.9797" x2="57.3534" y2="31.5152" stroke="white"/>
<line x1="57.3536" y1="28.6868" x2="53.818" y2="32.2223" stroke="white"/>
<line x1="53.8179" y1="29.9797" x2="57.3534" y2="33.5152" stroke="white"/>
<line x1="57.3536" y1="30.6868" x2="53.818" y2="34.2223" stroke="white"/>
<line x1="53.8179" y1="31.6464" x2="57.3534" y2="35.182" stroke="white"/>
<line x1="57.3536" y1="32.3536" x2="53.818" y2="35.8891" stroke="white"/>
<line x1="53.8179" y1="33.6464" x2="57.3534" y2="37.182" stroke="white"/>
<line x1="57.3536" y1="34.3536" x2="53.818" y2="37.8891" stroke="white"/>
<line x1="53.8179" y1="35.3131" x2="57.3534" y2="38.8486" stroke="white"/>
<line x1="57.3536" y1="36.0202" x2="53.818" y2="39.5557" stroke="white"/>
<line x1="53.8179" y1="37.3131" x2="57.3534" y2="40.8486" stroke="white"/>
<line x1="57.3536" y1="38.0202" x2="53.818" y2="41.5557" stroke="white"/>
<line x1="53.8179" y1="38.9798" x2="57.3534" y2="42.5154" stroke="white"/>
<line x1="57.3536" y1="39.6869" x2="53.818" y2="43.2225" stroke="white"/>
<line x1="53.8179" y1="40.9798" x2="57.3534" y2="44.5154" stroke="white"/>
<line x1="57.3536" y1="41.6869" x2="53.818" y2="45.2225" stroke="white"/>
<line x1="53.8179" y1="42.6464" x2="57.3534" y2="46.182" stroke="white"/>
<line x1="57.3536" y1="43.3536" x2="53.818" y2="46.8891" stroke="white"/>
<line x1="53.8179" y1="44.6464" x2="57.3534" y2="48.182" stroke="white"/>
<line x1="57.3536" y1="45.3536" x2="53.818" y2="48.8891" stroke="white"/>
<line x1="53.8179" y1="46.3131" x2="57.3534" y2="49.8486" stroke="white"/>
<line x1="57.3536" y1="47.0202" x2="53.818" y2="50.5557" stroke="white"/>
<line x1="53.8179" y1="48.3131" x2="57.3534" y2="51.8486" stroke="white"/>
<line x1="57.3536" y1="49.0202" x2="53.818" y2="52.5557" stroke="white"/>
<line x1="53.8179" y1="49.9798" x2="57.3534" y2="53.5154" stroke="white"/>
<line x1="57.3536" y1="50.6869" x2="53.818" y2="54.2225" stroke="white"/>
<line x1="53.8179" y1="51.9798" x2="57.3534" y2="55.5154" stroke="white"/>
<line x1="57.3536" y1="52.6869" x2="53.818" y2="56.2225" stroke="white"/>
<line x1="53.8179" y1="53.6464" x2="57.3534" y2="57.182" stroke="white"/>
<line x1="57.3536" y1="54.3536" x2="53.818" y2="57.8891" stroke="white"/>
<line x1="53.8179" y1="55.6464" x2="57.3534" y2="59.182" stroke="white"/>
<line x1="57.3536" y1="56.3536" x2="53.818" y2="59.8891" stroke="white"/>
<line x1="53.8179" y1="57.3131" x2="57.3534" y2="60.8486" stroke="white"/>
<line x1="57.3536" y1="58.0202" x2="53.818" y2="61.5557" stroke="white"/>
<line x1="53.8179" y1="59.3131" x2="57.1177" y2="62.6129" stroke="white"/>
<line x1="53.8179" y1="60.9798" x2="55.2321" y2="62.394" stroke="white"/>
<line x1="57.3536" y1="60.0202" x2="54.2894" y2="63.0843" stroke="white"/>
<line x1="57.3536" y1="61.6869" x2="55.9393" y2="63.1011" stroke="white"/>
<line x1="53.1665" y1="1" x2="53.1665" y2="63" stroke="white" stroke-width="3"/>
</svg>
