<svg width="110" height="64" viewBox="0 0 110 64" fill="none" xmlns="http://www.w3.org/2000/svg">
<rect x="110" y="1" width="62" height="110" transform="rotate(90 110 1)" fill="#F4BA67"/>
<line x1="60.7051" y1="1" x2="60.7051" y2="63" stroke="white" stroke-width="3"/>
<line y1="-0.5" x2="5.02299" y2="-0.5" transform="matrix(0.710328 0.703871 -0.710328 0.703871 55.6372 1)" stroke="white"/>
<line y1="-0.5" x2="5.02299" y2="-0.5" transform="matrix(-0.710328 0.703871 -0.710328 -0.703871 59.2051 1)" stroke="white"/>
<line y1="-0.5" x2="2.67893" y2="-0.5" transform="matrix(-0.710328 0.703871 -0.710328 -0.703871 57.5229 1)" stroke="white"/>
<line y1="-0.5" x2="2.67893" y2="-0.5" transform="matrix(0.710328 0.703871 -0.710328 0.703871 57.3022 1)" stroke="white"/>
<line y1="-0.5" x2="5.02299" y2="-0.5" transform="matrix(0.710328 0.703871 -0.710328 0.703871 55.6372 2.66675)" stroke="white"/>
<line y1="-0.5" x2="5.02299" y2="-0.5" transform="matrix(-0.710328 0.703871 -0.710328 -0.703871 59.2051 2.66675)" stroke="white"/>
<line y1="-0.5" x2="5.02299" y2="-0.5" transform="matrix(0.710328 0.703871 -0.710328 0.703871 55.6372 4.66675)" stroke="white"/>
<line y1="-0.5" x2="5.02299" y2="-0.5" transform="matrix(-0.710328 0.703871 -0.710328 -0.703871 59.2051 4.66675)" stroke="white"/>
<line y1="-0.5" x2="5.02299" y2="-0.5" transform="matrix(0.710328 0.703871 -0.710328 0.703871 55.6372 6.33325)" stroke="white"/>
<line y1="-0.5" x2="5.02299" y2="-0.5" transform="matrix(-0.710328 0.703871 -0.710328 -0.703871 59.2051 6.33325)" stroke="white"/>
<line y1="-0.5" x2="5.02299" y2="-0.5" transform="matrix(0.710328 0.703871 -0.710328 0.703871 55.6372 8.33325)" stroke="white"/>
<line y1="-0.5" x2="5.02299" y2="-0.5" transform="matrix(-0.710328 0.703871 -0.710328 -0.703871 59.2051 8.33325)" stroke="white"/>
<line y1="-0.5" x2="5.02299" y2="-0.5" transform="matrix(0.710328 0.703871 -0.710328 0.703871 55.6372 10)" stroke="white"/>
<line y1="-0.5" x2="5.02299" y2="-0.5" transform="matrix(-0.710328 0.703871 -0.710328 -0.703871 59.2051 10)" stroke="white"/>
<line y1="-0.5" x2="5.02299" y2="-0.5" transform="matrix(0.710328 0.703871 -0.710328 0.703871 55.6372 12)" stroke="white"/>
<line y1="-0.5" x2="5.02299" y2="-0.5" transform="matrix(-0.710328 0.703871 -0.710328 -0.703871 59.2051 12)" stroke="white"/>
<line y1="-0.5" x2="5.02299" y2="-0.5" transform="matrix(0.710328 0.703871 -0.710328 0.703871 55.6372 13.6667)" stroke="white"/>
<line y1="-0.5" x2="5.02299" y2="-0.5" transform="matrix(-0.710328 0.703871 -0.710328 -0.703871 59.2051 13.6667)" stroke="white"/>
<line y1="-0.5" x2="5.02299" y2="-0.5" transform="matrix(0.710328 0.703871 -0.710328 0.703871 55.6372 15.6667)" stroke="white"/>
<line y1="-0.5" x2="5.02299" y2="-0.5" transform="matrix(-0.710328 0.703871 -0.710328 -0.703871 59.2051 15.6667)" stroke="white"/>
<line y1="-0.5" x2="5.02299" y2="-0.5" transform="matrix(0.710328 0.703871 -0.710328 0.703871 55.6372 17.3333)" stroke="white"/>
<line y1="-0.5" x2="5.02299" y2="-0.5" transform="matrix(-0.710328 0.703871 -0.710328 -0.703871 59.2051 17.3333)" stroke="white"/>
<line y1="-0.5" x2="5.02299" y2="-0.5" transform="matrix(0.710328 0.703871 -0.710328 0.703871 55.6372 19.3333)" stroke="white"/>
<line y1="-0.5" x2="5.02299" y2="-0.5" transform="matrix(-0.710328 0.703871 -0.710328 -0.703871 59.2051 19.3333)" stroke="white"/>
<line y1="-0.5" x2="5.02299" y2="-0.5" transform="matrix(0.710328 0.703871 -0.710328 0.703871 55.6372 21)" stroke="white"/>
<line y1="-0.5" x2="5.02299" y2="-0.5" transform="matrix(-0.710328 0.703871 -0.710328 -0.703871 59.2051 21)" stroke="white"/>
<line y1="-0.5" x2="5.02299" y2="-0.5" transform="matrix(0.710328 0.703871 -0.710328 0.703871 55.6372 23)" stroke="white"/>
<line y1="-0.5" x2="5.02299" y2="-0.5" transform="matrix(-0.710328 0.703871 -0.710328 -0.703871 59.2051 23)" stroke="white"/>
<line y1="-0.5" x2="5.02299" y2="-0.5" transform="matrix(0.710328 0.703871 -0.710328 0.703871 55.6372 24.6667)" stroke="white"/>
<line y1="-0.5" x2="5.02299" y2="-0.5" transform="matrix(-0.710328 0.703871 -0.710328 -0.703871 59.2051 24.6667)" stroke="white"/>
<line y1="-0.5" x2="5.02299" y2="-0.5" transform="matrix(0.710328 0.703871 -0.710328 0.703871 55.6372 26.6667)" stroke="white"/>
<line y1="-0.5" x2="5.02299" y2="-0.5" transform="matrix(-0.710328 0.703871 -0.710328 -0.703871 59.2051 26.6667)" stroke="white"/>
<line y1="-0.5" x2="5.02299" y2="-0.5" transform="matrix(0.710328 0.703871 -0.710328 0.703871 55.6372 28.3333)" stroke="white"/>
<line y1="-0.5" x2="5.02299" y2="-0.5" transform="matrix(-0.710328 0.703871 -0.710328 -0.703871 59.2051 28.3333)" stroke="white"/>
<line y1="-0.5" x2="5.02299" y2="-0.5" transform="matrix(0.710328 0.703871 -0.710328 0.703871 55.6372 30.3333)" stroke="white"/>
<line y1="-0.5" x2="5.02299" y2="-0.5" transform="matrix(-0.710328 0.703871 -0.710328 -0.703871 59.2051 30.3333)" stroke="white"/>
<line y1="-0.5" x2="5.02299" y2="-0.5" transform="matrix(0.710328 0.703871 -0.710328 0.703871 55.6372 32)" stroke="white"/>
<line y1="-0.5" x2="5.02299" y2="-0.5" transform="matrix(-0.710328 0.703871 -0.710328 -0.703871 59.2051 32)" stroke="white"/>
<line y1="-0.5" x2="5.02299" y2="-0.5" transform="matrix(0.710328 0.703871 -0.710328 0.703871 55.6372 34)" stroke="white"/>
<line y1="-0.5" x2="5.02299" y2="-0.5" transform="matrix(-0.710328 0.703871 -0.710328 -0.703871 59.2051 34)" stroke="white"/>
<line y1="-0.5" x2="5.02299" y2="-0.5" transform="matrix(0.710328 0.703871 -0.710328 0.703871 55.6372 35.6667)" stroke="white"/>
<line y1="-0.5" x2="5.02299" y2="-0.5" transform="matrix(-0.710328 0.703871 -0.710328 -0.703871 59.2051 35.6667)" stroke="white"/>
<line y1="-0.5" x2="5.02299" y2="-0.5" transform="matrix(0.710328 0.703871 -0.710328 0.703871 55.6372 37.6667)" stroke="white"/>
<line y1="-0.5" x2="5.02299" y2="-0.5" transform="matrix(-0.710328 0.703871 -0.710328 -0.703871 59.2051 37.6667)" stroke="white"/>
<line y1="-0.5" x2="5.02299" y2="-0.5" transform="matrix(0.710328 0.703871 -0.710328 0.703871 55.6372 39.3333)" stroke="white"/>
<line y1="-0.5" x2="5.02299" y2="-0.5" transform="matrix(-0.710328 0.703871 -0.710328 -0.703871 59.2051 39.3333)" stroke="white"/>
<line y1="-0.5" x2="5.02299" y2="-0.5" transform="matrix(0.710328 0.703871 -0.710328 0.703871 55.6372 41.3333)" stroke="white"/>
<line y1="-0.5" x2="5.02299" y2="-0.5" transform="matrix(-0.710328 0.703871 -0.710328 -0.703871 59.2051 41.3333)" stroke="white"/>
<line y1="-0.5" x2="5.02299" y2="-0.5" transform="matrix(0.710328 0.703871 -0.710328 0.703871 55.6372 43)" stroke="white"/>
<line y1="-0.5" x2="5.02299" y2="-0.5" transform="matrix(-0.710328 0.703871 -0.710328 -0.703871 59.2051 43)" stroke="white"/>
<line y1="-0.5" x2="5.02299" y2="-0.5" transform="matrix(0.710328 0.703871 -0.710328 0.703871 55.6372 45)" stroke="white"/>
<line y1="-0.5" x2="5.02299" y2="-0.5" transform="matrix(-0.710328 0.703871 -0.710328 -0.703871 59.2051 45)" stroke="white"/>
<line y1="-0.5" x2="5.02299" y2="-0.5" transform="matrix(0.710328 0.703871 -0.710328 0.703871 55.6372 46.6667)" stroke="white"/>
<line y1="-0.5" x2="5.02299" y2="-0.5" transform="matrix(-0.710328 0.703871 -0.710328 -0.703871 59.2051 46.6667)" stroke="white"/>
<line y1="-0.5" x2="5.02299" y2="-0.5" transform="matrix(0.710328 0.703871 -0.710328 0.703871 55.6372 48.6667)" stroke="white"/>
<line y1="-0.5" x2="5.02299" y2="-0.5" transform="matrix(-0.710328 0.703871 -0.710328 -0.703871 59.2051 48.6667)" stroke="white"/>
<line y1="-0.5" x2="5.02299" y2="-0.5" transform="matrix(0.710328 0.703871 -0.710328 0.703871 55.6372 50.3333)" stroke="white"/>
<line y1="-0.5" x2="5.02299" y2="-0.5" transform="matrix(-0.710328 0.703871 -0.710328 -0.703871 59.2051 50.3333)" stroke="white"/>
<line y1="-0.5" x2="5.02299" y2="-0.5" transform="matrix(0.710328 0.703871 -0.710328 0.703871 55.6372 52.3333)" stroke="white"/>
<line y1="-0.5" x2="5.02299" y2="-0.5" transform="matrix(-0.710328 0.703871 -0.710328 -0.703871 59.2051 52.3333)" stroke="white"/>
<line y1="-0.5" x2="5.02299" y2="-0.5" transform="matrix(0.710328 0.703871 -0.710328 0.703871 55.6372 54)" stroke="white"/>
<line y1="-0.5" x2="5.02299" y2="-0.5" transform="matrix(-0.710328 0.703871 -0.710328 -0.703871 59.2051 54)" stroke="white"/>
<line y1="-0.5" x2="5.02299" y2="-0.5" transform="matrix(0.710328 0.703871 -0.710328 0.703871 55.6372 56)" stroke="white"/>
<line y1="-0.5" x2="5.02299" y2="-0.5" transform="matrix(-0.710328 0.703871 -0.710328 -0.703871 59.2051 56)" stroke="white"/>
<line y1="-0.5" x2="5.02299" y2="-0.5" transform="matrix(0.710328 0.703871 -0.710328 0.703871 55.6372 57.6667)" stroke="white"/>
<line y1="-0.5" x2="5.02299" y2="-0.5" transform="matrix(-0.710328 0.703871 -0.710328 -0.703871 59.2051 57.6667)" stroke="white"/>
<line y1="-0.5" x2="4.68812" y2="-0.5" transform="matrix(0.710328 0.703871 -0.710328 0.703871 55.6372 59.6667)" stroke="white"/>
<line y1="-0.5" x2="2.0092" y2="-0.5" transform="matrix(0.710328 0.703871 -0.710328 0.703871 55.6372 61.3333)" stroke="white"/>
<line y1="-0.5" x2="4.35326" y2="-0.5" transform="matrix(-0.710328 0.703871 -0.710328 -0.703871 59.2051 59.6667)" stroke="white"/>
<line y1="-0.5" x2="2.0092" y2="-0.5" transform="matrix(-0.710328 0.703871 -0.710328 -0.703871 59.2051 61.3333)" stroke="white"/>
<line x1="55.3228" y1="1" x2="55.3228" y2="63" stroke="white" stroke-width="3"/>
<path d="M68.6237 6.66675L68.6568 6.96166C68.746 7.75699 68.9936 8.5264 69.385 9.22449L69.3975 9.24694C69.5542 9.52631 69.6869 9.81842 69.7944 10.1201V10.1201C70.3341 11.6354 70.2071 13.3084 69.4447 14.7247C69.4346 14.7435 69.4246 14.7622 69.4145 14.7809C68.499 16.4819 68.4852 18.5257 69.3775 20.2389C69.5132 20.4993 69.6496 20.7614 69.7911 21.033C70.3501 22.1062 70.7184 23.3272 70.3344 24.4747C69.7321 26.2744 68.4555 27.6946 68.4555 29.8334" stroke="#FFCC6B"/>
<path d="M74.0061 34.3333L74.0391 34.6282C74.1283 35.4235 74.3759 36.1929 74.7673 36.891L74.7799 36.9134C74.9365 37.1928 75.0693 37.4849 75.1767 37.7866V37.7866C75.7164 39.3019 75.5894 40.9749 74.827 42.3912C74.817 42.41 74.8069 42.4287 74.7968 42.4474C73.8813 44.1484 73.8675 46.1922 74.7598 47.9054C74.8955 48.1658 75.032 48.4279 75.1734 48.6995C75.7324 49.7727 76.1008 50.9937 75.7167 52.1412C75.1144 53.9409 73.8379 55.3611 73.8379 57.4999" stroke="#FFCC6B"/>
<path d="M84.0979 6.33325L84.1309 6.62817C84.2201 7.4235 84.4677 8.19291 84.8591 8.89099L84.8717 8.91344C85.0283 9.19282 85.1611 9.48492 85.2685 9.78664V9.78664C85.8082 11.3019 85.6812 12.9749 84.9188 14.3912C84.9088 14.41 84.8987 14.4287 84.8886 14.4474C83.9731 16.1484 83.9593 18.1922 84.8516 19.9054C84.9873 20.1658 85.1238 20.4279 85.2652 20.6995C85.8242 21.7727 86.1926 22.9937 85.8085 24.1412C85.2062 25.9409 83.9297 27.3611 83.9297 29.4999" stroke="#FFCC6B"/>
<path d="M91.9192 13.3333L91.9391 13.5046C91.9953 13.9895 92.1507 14.4576 92.3955 14.8799L92.4049 14.896C92.5014 15.0625 92.5834 15.237 92.6499 15.4176V15.4176C92.9868 16.3322 92.9079 17.3484 92.4338 18.2001C92.4271 18.2122 92.4203 18.2244 92.4136 18.2365C91.8436 19.2604 91.835 20.5043 92.3908 21.5361C92.4759 21.694 92.5615 21.8529 92.6502 22.0176C92.9983 22.6639 93.2278 23.4051 92.9871 24.0985C92.6102 25.1844 91.8141 26.0421 91.8141 27.3333" stroke="#C19351"/>
<path d="M100.329 10.3333L100.349 10.5046C100.405 10.9895 100.56 11.4576 100.805 11.8799L100.815 11.896C100.911 12.0625 100.993 12.237 101.06 12.4176V12.4176C101.396 13.3322 101.318 14.3484 100.843 15.2001C100.837 15.2122 100.83 15.2244 100.823 15.2365C100.253 16.2604 100.245 17.5043 100.8 18.5361C100.886 18.694 100.971 18.8529 101.06 19.0176C101.408 19.6639 101.638 20.4051 101.397 21.0985C101.02 22.1844 100.224 23.0421 100.224 24.3333" stroke="#FFD66B"/>
<path d="M8.15747 43L8.17735 43.1713C8.23358 43.6562 8.38896 44.1244 8.63382 44.5467L8.64315 44.5628C8.73968 44.7292 8.82166 44.9037 8.88817 45.0843V45.0843C9.22511 45.999 9.1462 47.0151 8.67211 47.8668C8.66535 47.879 8.6586 47.8911 8.65186 47.9032C8.08187 48.9272 8.07329 50.1711 8.62908 51.2028C8.71415 51.3607 8.79975 51.5196 8.8885 51.6844C9.23663 52.3306 9.46613 53.0718 9.2254 53.7653C8.84843 54.8512 8.05235 55.7089 8.05235 57" stroke="#C19351"/>
<path d="M19.595 8.66675L19.6148 8.83809C19.6711 9.32299 19.8265 9.79114 20.0713 10.2134L20.0806 10.2295C20.1772 10.396 20.2592 10.5705 20.3257 10.7511V10.7511C20.6626 11.6657 20.5837 12.6819 20.1096 13.5336C20.1029 13.5457 20.0961 13.5579 20.0894 13.57C19.5194 14.5939 19.5108 15.8378 20.0666 16.8696C20.1517 17.0275 20.2372 17.1864 20.326 17.3511C20.6741 17.9974 20.9036 18.7386 20.6629 19.432C20.2859 20.5179 19.4899 21.3756 19.4899 22.6667" stroke="#C19351"/>
<path d="M45.8333 8.66675L45.8531 8.83809C45.9094 9.32299 46.0647 9.79114 46.3096 10.2134L46.3189 10.2295C46.4155 10.396 46.4974 10.5705 46.564 10.7511V10.7511C46.9009 11.6657 46.822 12.6819 46.3479 13.5336C46.3411 13.5457 46.3344 13.5579 46.3276 13.57C45.7576 14.5939 45.7491 15.8378 46.3049 16.8696C46.3899 17.0275 46.4755 17.1864 46.5643 17.3511C46.9124 17.9974 47.1419 18.7386 46.9012 19.432C46.5242 20.5179 45.7281 21.3756 45.7281 22.6667" stroke="#C19351"/>
<path d="M26.9954 41L27.0152 41.1713C27.0715 41.6562 27.2268 42.1244 27.4717 42.5467L27.481 42.5628C27.5776 42.7292 27.6595 42.9037 27.7261 43.0843V43.0843C28.063 43.999 27.9841 45.0151 27.51 45.8668C27.5032 45.879 27.4965 45.8911 27.4897 45.9032C26.9198 46.9272 26.9112 48.1711 27.467 49.2028C27.552 49.3607 27.6376 49.5196 27.7264 49.6844C28.0745 50.3306 28.304 51.0718 28.0633 51.7653C27.6863 52.8512 26.8902 53.7089 26.8902 55" stroke="#C19351"/>
<path d="M65.6804 45L65.7003 45.1713C65.7565 45.6562 65.9119 46.1244 66.1568 46.5467L66.1661 46.5628C66.2626 46.7292 66.3446 46.9037 66.4111 47.0843V47.0843C66.7481 47.999 66.6692 49.0151 66.1951 49.8668C66.1883 49.879 66.1816 49.8911 66.1748 49.9032C65.6048 50.9272 65.5962 52.1711 66.152 53.2028C66.2371 53.3607 66.3227 53.5196 66.4115 53.6844C66.7596 54.3306 66.9891 55.0718 66.7483 55.7653C66.3714 56.8512 65.5753 57.7089 65.5753 59" stroke="#C19351"/>
<path d="M81.8274 41L81.8473 41.1713C81.9035 41.6562 82.0589 42.1244 82.3037 42.5467L82.3131 42.5628C82.4096 42.7292 82.4916 42.9037 82.5581 43.0843V43.0843C82.895 43.999 82.8161 45.0151 82.342 45.8668C82.3353 45.879 82.3285 45.8911 82.3218 45.9032C81.7518 46.9272 81.7432 48.1711 82.299 49.2028C82.3841 49.3607 82.4697 49.5196 82.5584 49.6844C82.9065 50.3306 83.136 51.0718 82.8953 51.7653C82.5184 52.8512 81.7223 53.7089 81.7223 55" stroke="#C19351"/>
<path d="M75.4358 9.66675L75.4557 9.83809C75.5119 10.323 75.6673 10.7911 75.9121 11.2134L75.9215 11.2295C76.018 11.396 76.1 11.5705 76.1665 11.7511V11.7511C76.5034 12.6657 76.4245 13.6819 75.9504 14.5336C75.9437 14.5457 75.9369 14.5579 75.9302 14.57C75.3602 15.5939 75.3516 16.8378 75.9074 17.8696C75.9925 18.0275 76.0781 18.1864 76.1668 18.3511C76.5149 18.9974 76.7444 19.7386 76.5037 20.432C76.1268 21.5179 75.3307 22.3756 75.3307 23.6667" stroke="#C19351"/>
<path d="M96.2077 35L96.2408 35.2949C96.33 36.0902 96.5776 36.8597 96.9689 37.5577L96.9815 37.5802C97.1382 37.8596 97.2709 38.1517 97.3784 38.4534V38.4534C97.9181 39.9687 97.791 41.6416 97.0287 43.058C97.0186 43.0767 97.0085 43.0955 96.9985 43.1142C96.083 44.8151 96.0691 46.8589 96.9615 48.5721C97.0971 48.8326 97.2336 49.0946 97.3751 49.3662C97.9341 50.4394 98.3024 51.6605 97.9184 52.808C97.3161 54.6077 96.0395 56.0278 96.0395 58.1667" stroke="#FFCC6B"/>
<path d="M41.7126 32L41.7457 32.2949C41.8349 33.0902 42.0824 33.8597 42.4738 34.5577L42.4864 34.5802C42.643 34.8596 42.7758 35.1517 42.8833 35.4534V35.4534C43.423 36.9687 43.2959 38.6416 42.5336 40.058C42.5235 40.0767 42.5134 40.0955 42.5034 40.1142C41.5879 41.8151 41.574 43.8589 42.4664 45.5721C42.602 45.8326 42.7385 46.0946 42.88 46.3662C43.439 47.4394 43.8073 48.6605 43.4233 49.808C42.821 51.6077 41.5444 53.0278 41.5444 55.1667" stroke="#FFCC6B"/>
<path d="M31.2844 8L31.3175 8.29491C31.4066 9.09024 31.6542 9.85965 32.0456 10.5577L32.0582 10.5802C32.2148 10.8596 32.3476 11.1517 32.455 11.4534V11.4534C32.9948 12.9687 32.8677 14.6416 32.1054 16.058C32.0953 16.0767 32.0852 16.0955 32.0751 16.1142C31.1596 17.8151 31.1458 19.8589 32.0382 21.5721C32.1738 21.8326 32.3103 22.0946 32.4518 22.3662C33.0107 23.4394 33.3791 24.6605 32.9951 25.808C32.3927 27.6077 31.1162 29.0278 31.1162 31.1667" stroke="#FFCC6B"/>
<path d="M20.1833 35L20.2164 35.2949C20.3056 36.0902 20.5531 36.8597 20.9445 37.5577L20.9571 37.5802C21.1138 37.8596 21.2465 38.1517 21.354 38.4534V38.4534C21.8937 39.9687 21.7666 41.6416 21.0043 43.058C20.9942 43.0767 20.9841 43.0955 20.9741 43.1142C20.0586 44.8151 20.0447 46.8589 20.9371 48.5721C21.0727 48.8326 21.2092 49.0946 21.3507 49.3662C21.9097 50.4394 22.278 51.6605 21.894 52.808C21.2917 54.6077 20.0151 56.0278 20.0151 58.1667" stroke="#FFCC6B"/>
<path d="M12.7829 6.66675L12.816 6.96166C12.9052 7.75699 13.1528 8.5264 13.5441 9.22449L13.5567 9.24694C13.7134 9.52631 13.8461 9.81842 13.9536 10.1201V10.1201C14.4933 11.6354 14.3662 13.3084 13.6039 14.7247C13.5938 14.7435 13.5837 14.7622 13.5737 14.7809C12.6582 16.4819 12.6443 18.5257 13.5367 20.2389C13.6723 20.4993 13.8088 20.7614 13.9503 21.033C14.5093 22.1062 14.8776 23.3272 14.4936 24.4747C13.8913 26.2744 12.6147 27.6946 12.6147 29.8334" stroke="#FFCC6B"/>
<path d="M68.6237 6.66675L68.6568 6.96166C68.746 7.75699 68.9936 8.5264 69.385 9.22449L69.3975 9.24694C69.5542 9.52631 69.6869 9.81842 69.7944 10.1201V10.1201C70.3341 11.6354 70.2071 13.3084 69.4447 14.7247C69.4346 14.7435 69.4246 14.7622 69.4145 14.7809C68.499 16.4819 68.4852 18.5257 69.3775 20.2389C69.5132 20.4993 69.6496 20.7614 69.7911 21.033C70.3501 22.1062 70.7184 23.3272 70.3344 24.4747C69.7321 26.2744 68.4555 27.6946 68.4555 29.8334" stroke="#FFCC6B"/>
<path d="M74.0061 34.3333L74.0391 34.6282C74.1283 35.4235 74.3759 36.1929 74.7673 36.891L74.7799 36.9134C74.9365 37.1928 75.0693 37.4849 75.1767 37.7866V37.7866C75.7164 39.3019 75.5894 40.9749 74.827 42.3912C74.817 42.41 74.8069 42.4287 74.7968 42.4474C73.8813 44.1484 73.8675 46.1922 74.7598 47.9054C74.8955 48.1658 75.032 48.4279 75.1734 48.6995C75.7324 49.7727 76.1008 50.9937 75.7167 52.1412C75.1144 53.9409 73.8379 55.3611 73.8379 57.4999" stroke="#FFCC6B"/>
<path d="M84.0979 6.33325L84.1309 6.62817C84.2201 7.4235 84.4677 8.19291 84.8591 8.89099L84.8717 8.91344C85.0283 9.19282 85.1611 9.48492 85.2685 9.78664V9.78664C85.8082 11.3019 85.6812 12.9749 84.9188 14.3912C84.9088 14.41 84.8987 14.4287 84.8886 14.4474C83.9731 16.1484 83.9593 18.1922 84.8516 19.9054C84.9873 20.1658 85.1238 20.4279 85.2652 20.6995C85.8242 21.7727 86.1926 22.9937 85.8085 24.1412C85.2062 25.9409 83.9297 27.3611 83.9297 29.4999" stroke="#FFCC6B"/>
<path d="M91.9192 13.3333L91.9391 13.5046C91.9953 13.9895 92.1507 14.4576 92.3955 14.8799L92.4049 14.896C92.5014 15.0625 92.5834 15.237 92.6499 15.4176V15.4176C92.9868 16.3322 92.9079 17.3484 92.4338 18.2001C92.4271 18.2122 92.4203 18.2244 92.4136 18.2365C91.8436 19.2604 91.835 20.5043 92.3908 21.5361C92.4759 21.694 92.5615 21.8529 92.6502 22.0176C92.9983 22.6639 93.2278 23.4051 92.9871 24.0985C92.6102 25.1844 91.8141 26.0421 91.8141 27.3333" stroke="#C19351"/>
<path d="M100.329 10.3333L100.349 10.5046C100.405 10.9895 100.56 11.4576 100.805 11.8799L100.815 11.896C100.911 12.0625 100.993 12.237 101.06 12.4176V12.4176C101.396 13.3322 101.318 14.3484 100.843 15.2001C100.837 15.2122 100.83 15.2244 100.823 15.2365C100.253 16.2604 100.245 17.5043 100.8 18.5361C100.886 18.694 100.971 18.8529 101.06 19.0176C101.408 19.6639 101.638 20.4051 101.397 21.0985C101.02 22.1844 100.224 23.0421 100.224 24.3333" stroke="#FFD66B"/>
<path d="M8.15747 43L8.17735 43.1713C8.23358 43.6562 8.38896 44.1244 8.63382 44.5467L8.64315 44.5628C8.73968 44.7292 8.82166 44.9037 8.88817 45.0843V45.0843C9.22511 45.999 9.1462 47.0151 8.67211 47.8668C8.66535 47.879 8.6586 47.8911 8.65186 47.9032C8.08187 48.9272 8.07329 50.1711 8.62908 51.2028C8.71415 51.3607 8.79975 51.5196 8.8885 51.6844C9.23663 52.3306 9.46613 53.0718 9.2254 53.7653C8.84843 54.8512 8.05235 55.7089 8.05235 57" stroke="#C19351"/>
<path d="M19.595 8.66675L19.6148 8.83809C19.6711 9.32299 19.8265 9.79114 20.0713 10.2134L20.0806 10.2295C20.1772 10.396 20.2592 10.5705 20.3257 10.7511V10.7511C20.6626 11.6657 20.5837 12.6819 20.1096 13.5336C20.1029 13.5457 20.0961 13.5579 20.0894 13.57C19.5194 14.5939 19.5108 15.8378 20.0666 16.8696C20.1517 17.0275 20.2372 17.1864 20.326 17.3511C20.6741 17.9974 20.9036 18.7386 20.6629 19.432C20.2859 20.5179 19.4899 21.3756 19.4899 22.6667" stroke="#C19351"/>
<path d="M45.8333 8.66675L45.8531 8.83809C45.9094 9.32299 46.0647 9.79114 46.3096 10.2134L46.3189 10.2295C46.4155 10.396 46.4974 10.5705 46.564 10.7511V10.7511C46.9009 11.6657 46.822 12.6819 46.3479 13.5336C46.3411 13.5457 46.3344 13.5579 46.3276 13.57C45.7576 14.5939 45.7491 15.8378 46.3049 16.8696C46.3899 17.0275 46.4755 17.1864 46.5643 17.3511C46.9124 17.9974 47.1419 18.7386 46.9012 19.432C46.5242 20.5179 45.7281 21.3756 45.7281 22.6667" stroke="#C19351"/>
<path d="M26.9954 41L27.0152 41.1713C27.0715 41.6562 27.2268 42.1244 27.4717 42.5467L27.481 42.5628C27.5776 42.7292 27.6595 42.9037 27.7261 43.0843V43.0843C28.063 43.999 27.9841 45.0151 27.51 45.8668C27.5032 45.879 27.4965 45.8911 27.4897 45.9032C26.9198 46.9272 26.9112 48.1711 27.467 49.2028C27.552 49.3607 27.6376 49.5196 27.7264 49.6844C28.0745 50.3306 28.304 51.0718 28.0633 51.7653C27.6863 52.8512 26.8902 53.7089 26.8902 55" stroke="#C19351"/>
<path d="M65.6804 45L65.7003 45.1713C65.7565 45.6562 65.9119 46.1244 66.1568 46.5467L66.1661 46.5628C66.2626 46.7292 66.3446 46.9037 66.4111 47.0843V47.0843C66.7481 47.999 66.6692 49.0151 66.1951 49.8668C66.1883 49.879 66.1816 49.8911 66.1748 49.9032C65.6048 50.9272 65.5962 52.1711 66.152 53.2028C66.2371 53.3607 66.3227 53.5196 66.4115 53.6844C66.7596 54.3306 66.9891 55.0718 66.7483 55.7653C66.3714 56.8512 65.5753 57.7089 65.5753 59" stroke="#C19351"/>
<path d="M81.8274 41L81.8473 41.1713C81.9035 41.6562 82.0589 42.1244 82.3037 42.5467L82.3131 42.5628C82.4096 42.7292 82.4916 42.9037 82.5581 43.0843V43.0843C82.895 43.999 82.8161 45.0151 82.342 45.8668C82.3353 45.879 82.3285 45.8911 82.3218 45.9032C81.7518 46.9272 81.7432 48.1711 82.299 49.2028C82.3841 49.3607 82.4697 49.5196 82.5584 49.6844C82.9065 50.3306 83.136 51.0718 82.8953 51.7653C82.5184 52.8512 81.7223 53.7089 81.7223 55" stroke="#C19351"/>
<path d="M75.4358 9.66675L75.4557 9.83809C75.5119 10.323 75.6673 10.7911 75.9121 11.2134L75.9215 11.2295C76.018 11.396 76.1 11.5705 76.1665 11.7511V11.7511C76.5034 12.6657 76.4245 13.6819 75.9504 14.5336C75.9437 14.5457 75.9369 14.5579 75.9302 14.57C75.3602 15.5939 75.3516 16.8378 75.9074 17.8696C75.9925 18.0275 76.0781 18.1864 76.1668 18.3511C76.5149 18.9974 76.7444 19.7386 76.5037 20.432C76.1268 21.5179 75.3307 22.3756 75.3307 23.6667" stroke="#C19351"/>
<path d="M96.2077 35L96.2408 35.2949C96.33 36.0902 96.5776 36.8597 96.9689 37.5577L96.9815 37.5802C97.1382 37.8596 97.2709 38.1517 97.3784 38.4534V38.4534C97.9181 39.9687 97.791 41.6416 97.0287 43.058C97.0186 43.0767 97.0085 43.0955 96.9985 43.1142C96.083 44.8151 96.0691 46.8589 96.9615 48.5721C97.0971 48.8326 97.2336 49.0946 97.3751 49.3662C97.9341 50.4394 98.3024 51.6605 97.9184 52.808C97.3161 54.6077 96.0395 56.0278 96.0395 58.1667" stroke="#FFCC6B"/>
<path d="M41.7126 32L41.7457 32.2949C41.8349 33.0902 42.0824 33.8597 42.4738 34.5577L42.4864 34.5802C42.643 34.8596 42.7758 35.1517 42.8833 35.4534V35.4534C43.423 36.9687 43.2959 38.6416 42.5336 40.058C42.5235 40.0767 42.5134 40.0955 42.5034 40.1142C41.5879 41.8151 41.574 43.8589 42.4664 45.5721C42.602 45.8326 42.7385 46.0946 42.88 46.3662C43.439 47.4394 43.8073 48.6605 43.4233 49.808C42.821 51.6077 41.5444 53.0278 41.5444 55.1667" stroke="#FFCC6B"/>
<path d="M31.2844 8L31.3175 8.29491C31.4066 9.09024 31.6542 9.85965 32.0456 10.5577L32.0582 10.5802C32.2148 10.8596 32.3476 11.1517 32.455 11.4534V11.4534C32.9948 12.9687 32.8677 14.6416 32.1054 16.058C32.0953 16.0767 32.0852 16.0955 32.0751 16.1142C31.1596 17.8151 31.1458 19.8589 32.0382 21.5721C32.1738 21.8326 32.3103 22.0946 32.4518 22.3662C33.0107 23.4394 33.3791 24.6605 32.9951 25.808C32.3927 27.6077 31.1162 29.0278 31.1162 31.1667" stroke="#FFCC6B"/>
<path d="M20.1833 35L20.2164 35.2949C20.3056 36.0902 20.5531 36.8597 20.9445 37.5577L20.9571 37.5802C21.1138 37.8596 21.2465 38.1517 21.354 38.4534V38.4534C21.8937 39.9687 21.7666 41.6416 21.0043 43.058C20.9942 43.0767 20.9841 43.0955 20.9741 43.1142C20.0586 44.8151 20.0447 46.8589 20.9371 48.5721C21.0727 48.8326 21.2092 49.0946 21.3507 49.3662C21.9097 50.4394 22.278 51.6605 21.894 52.808C21.2917 54.6077 20.0151 56.0278 20.0151 58.1667" stroke="#FFCC6B"/>
<path d="M12.7829 6.66675L12.816 6.96166C12.9052 7.75699 13.1528 8.5264 13.5441 9.22449L13.5567 9.24694C13.7134 9.52631 13.8461 9.81842 13.9536 10.1201V10.1201C14.4933 11.6354 14.3662 13.3084 13.6039 14.7247C13.5938 14.7435 13.5837 14.7622 13.5737 14.7809C12.6582 16.4819 12.6443 18.5257 13.5367 20.2389C13.6723 20.4993 13.8088 20.7614 13.9503 21.033C14.5093 22.1062 14.8776 23.3272 14.4936 24.4747C13.8913 26.2744 12.6147 27.6946 12.6147 29.8334" stroke="#FFCC6B"/>
</svg>
